<svg width="182" height="40" viewBox="0 0 182 40" fill="none" xmlns="http://www.w3.org/2000/svg">
<g clip-path="url(#clip0_5671_11628)">
<path d="M19.6396 39.3846C30.4863 39.3846 39.2793 30.5681 39.2793 19.6923C39.2793 8.81655 30.4863 0 19.6396 0C8.79296 0 0 8.81655 0 19.6923C0 30.5681 8.79296 39.3846 19.6396 39.3846Z" fill="white"/>
<mask id="mask0_5671_11628" style="mask-type:luminance" maskUnits="userSpaceOnUse" x="0" y="0" width="40" height="40">
<path d="M19.6396 39.3846C30.4863 39.3846 39.2793 30.5681 39.2793 19.6923C39.2793 8.81655 30.4863 0 19.6396 0C8.79296 0 0 8.81655 0 19.6923C0 30.5681 8.79296 39.3846 19.6396 39.3846Z" fill="white"/>
</mask>
<g mask="url(#mask0_5671_11628)">
<mask id="mask1_5671_11628" style="mask-type:luminance" maskUnits="userSpaceOnUse" x="5" y="-6" width="28" height="28">
<path d="M12.3398 -5.08374L32.7395 2.37162L25.7291 21.7118L5.3294 14.2564L12.3398 -5.08374Z" fill="white"/>
</mask>
<g mask="url(#mask1_5671_11628)">
<path d="M24.4737 25.1317C26.4044 25.8373 28.501 24.8787 29.1729 23.0251C29.8448 21.1716 28.8523 19.084 26.9216 18.3784C24.9909 17.6728 22.8943 18.6314 22.2224 20.485C21.5505 22.3385 22.543 24.4261 24.4731 25.1315L24.4737 25.1317ZM23.2673 28.4598C19.5115 27.0872 17.5555 22.973 18.8978 19.2699C20.2401 15.5668 24.3722 13.6777 28.1274 15.0501C31.8832 16.4227 33.8398 20.5371 32.4975 24.2402C31.1552 27.9433 27.0225 29.8322 23.2673 28.4598Z" fill="#EEF6F9"/>
<path d="M22.2459 31.278C27.96 33.3663 34.0884 30.7084 35.9884 25.4668C37.888 20.2263 34.8948 14.2348 29.1808 12.1465C23.4667 10.0582 17.3379 12.7153 15.4381 17.9564C13.5381 23.198 16.5319 29.1898 22.2459 31.278ZM21.0396 34.6061C13.5288 31.8612 9.53226 23.8626 12.1136 16.7414C14.6946 9.62078 22.8763 6.07353 30.3871 8.81846C37.8979 11.5634 41.8943 19.5606 39.313 26.6818C36.7317 33.803 28.5504 37.351 21.0396 34.6061Z" fill="#037584"/>
<path d="M19.9092 37.7244C29.3789 41.1853 39.5981 36.7541 42.7886 27.9521C45.979 19.1508 40.9867 9.16029 31.5176 5.69966C22.0484 2.23902 11.8286 6.67002 8.63831 15.4714C5.44777 24.2733 10.4395 34.2636 19.9092 37.7244ZM18.7028 41.0525C7.43636 36.935 1.44194 24.9379 5.31378 14.2564C9.18562 3.57492 21.4574 -1.74587 32.7239 2.37162C43.9904 6.48912 49.985 18.4856 46.1132 29.1671C42.2413 39.8486 29.9693 45.17 18.7028 41.0525Z" fill="#037584"/>
</g>
<path fill-rule="evenodd" clip-rule="evenodd" d="M21.422 28.907C22.6721 29.7298 24.1351 30.1673 25.6305 30.1655C29.9143 30.1655 33.3881 26.6393 33.3881 22.2885C33.3881 17.9378 29.9143 14.4116 25.6305 14.4116C21.3466 14.4116 17.8728 17.9378 17.8728 22.2885C17.8728 23.7716 18.2766 25.1593 18.9788 26.3439L13.9835 31.3525C13.8194 31.5171 13.6892 31.7125 13.6004 31.9275C13.5115 32.1426 13.4658 32.373 13.4658 32.6058C13.4658 32.8385 13.5115 33.069 13.6004 33.284C13.6892 33.4991 13.8194 33.6944 13.9835 33.859C14.1477 34.0236 14.3425 34.1541 14.557 34.2432C14.7714 34.3323 15.0013 34.3781 15.2334 34.3781C15.4655 34.3781 15.6954 34.3323 15.9098 34.2432C16.1243 34.1541 16.3192 34.0236 16.4833 33.859L21.422 28.907Z" fill="#037584"/>
<path d="M25.7281 24.3796C26.8095 24.3796 27.6994 23.4762 27.6994 22.3457C27.6994 21.2153 26.8095 20.3119 25.7281 20.3119C24.6466 20.3119 23.7567 21.2153 23.7567 22.3457C23.7567 23.4762 24.6466 24.3796 25.7281 24.3796ZM25.7281 26.9322C23.2332 26.9322 21.2109 24.8787 21.2109 22.3457C21.2109 19.8128 23.2332 17.7593 25.7281 17.7593C28.2229 17.7593 30.2452 19.8128 30.2452 22.3457C30.2452 24.8787 28.2229 26.9322 25.7281 26.9322Z" fill="white"/>
<mask id="mask2_5671_11628" style="mask-type:luminance" maskUnits="userSpaceOnUse" x="0" y="0" width="40" height="40">
<path d="M19.6396 39.3846C30.4863 39.3846 39.2793 30.5681 39.2793 19.6923C39.2793 8.81655 30.4863 0 19.6396 0C8.79296 0 0 8.81655 0 19.6923C0 30.5681 8.79296 39.3846 19.6396 39.3846Z" fill="white"/>
</mask>
<g mask="url(#mask2_5671_11628)">
<mask id="mask3_5671_11628" style="mask-type:luminance" maskUnits="userSpaceOnUse" x="5" y="-6" width="33" height="28">
<path d="M12.3398 -5.0835L32.7395 2.37183L25.729 21.712L5.32936 14.2567L12.3398 -5.0835Z" fill="white"/>
<path d="M12.3457 -5.0835L37.0466 3.94079L35.51 8.17832L10.8092 -0.84596L12.3457 -5.0835Z" fill="white"/>
</mask>
<g mask="url(#mask3_5671_11628)">
<path d="M24.4727 25.1319C26.4034 25.8375 28.5 24.879 29.1719 23.0254C29.8438 21.1718 28.8513 19.0843 26.9206 18.3786C24.9899 17.673 22.8933 18.6316 22.2214 20.4852C21.5495 22.3388 22.542 24.4263 24.4721 25.1317L24.4727 25.1319ZM23.2663 28.4601C19.5105 27.0875 17.5545 22.9733 18.8968 19.2702C20.2391 15.5671 24.3712 13.6779 28.1264 15.0503C31.8822 16.4229 33.8388 20.5373 32.4965 24.2404C31.1542 27.9435 27.0215 29.8324 23.2663 28.4601Z" fill="#037584"/>
<path d="M22.2449 31.2783C27.959 33.3666 34.0874 30.7087 35.9874 25.467C37.887 20.2265 34.8938 14.235 29.1798 12.1467C23.4657 10.0585 17.3369 12.7156 15.4371 17.9566C13.5371 23.1983 16.5309 29.19 22.2449 31.2783ZM21.0386 34.6063C13.5278 31.8614 9.53127 23.8628 12.1126 16.7416C14.6937 9.62102 22.8753 6.07377 30.3861 8.8187C37.8969 11.5636 41.8933 19.5609 39.312 26.682C36.7307 33.8032 28.5494 37.3513 21.0386 34.6063Z" fill="#037584"/>
<path d="M19.9082 37.7247C29.3779 41.1855 39.5971 36.7543 42.7876 27.9524C45.978 19.151 40.9857 9.16053 31.5166 5.69989C22.0474 2.23926 11.8277 6.67027 8.63732 15.4716C5.44677 24.2736 10.4385 34.2639 19.9082 37.7247ZM18.7018 41.0527C7.43535 36.9352 1.44095 24.9381 5.31279 14.2567C9.18463 3.57517 21.4565 -1.74563 32.7229 2.37186C43.9894 6.48935 49.984 18.4859 46.1122 29.1674C42.2403 39.8488 29.9683 45.1702 18.7018 41.0527Z" fill="#037584"/>
</g>
<path fill-rule="evenodd" clip-rule="evenodd" d="M21.4211 28.9073C22.6711 29.73 24.1342 30.1676 25.6295 30.1657C29.9134 30.1657 33.3871 26.6396 33.3871 22.2888C33.3871 17.938 29.9134 14.4119 25.6295 14.4119C21.3456 14.4119 17.8718 17.938 17.8718 22.2888C17.8718 23.7719 18.2757 25.1596 18.9778 26.3442L13.9826 31.3528C13.8184 31.5174 13.6882 31.7127 13.5994 31.9278C13.5106 32.1428 13.4648 32.3733 13.4648 32.606C13.4648 32.8388 13.5106 33.0692 13.5994 33.2843C13.6882 33.4993 13.8184 33.6947 13.9826 33.8593C14.1467 34.0238 14.3416 34.1544 14.556 34.2434C14.7705 34.3325 15.0003 34.3784 15.2324 34.3784C15.4646 34.3784 15.6944 34.3325 15.9089 34.2434C16.1233 34.1544 16.3182 34.0238 16.4823 33.8593L21.4211 28.9073Z" fill="#037584"/>
<path d="M25.7281 24.3798C26.8095 24.3798 27.6994 23.4764 27.6994 22.346C27.6994 21.2155 26.8095 20.3121 25.7281 20.3121C24.6466 20.3121 23.7567 21.2155 23.7567 22.346C23.7567 23.4764 24.6466 24.3798 25.7281 24.3798ZM25.7281 26.9324C23.2332 26.9324 21.2109 24.8789 21.2109 22.346C21.2109 19.8131 23.2332 17.7595 25.7281 17.7595C28.2229 17.7595 30.2452 19.8131 30.2452 22.346C30.2452 24.8789 28.2229 26.9324 25.7281 26.9324Z" fill="#E98400"/>
</g>
</g>
<path fill-rule="evenodd" clip-rule="evenodd" d="M48.3481 25.0512V3.69238H44.1895V25.0512H48.3481ZM65.4082 25.0512V15.0616C65.4082 13.3515 65.0793 11.8819 63.823 10.6216C62.9551 9.75208 61.6988 9.24192 60.143 9.24192C58.7068 9.24192 57.2707 9.78223 56.2537 10.8616V9.42161H52.4547V25.0512H56.3433V15.6013C56.3433 13.4721 57.7199 12.7521 58.9462 12.7521C60.173 12.7521 61.519 13.4721 61.519 15.6013V25.0512H65.4082ZM76.037 25.0512V21.7508H74.6309C73.7029 21.7508 73.2843 21.2413 73.2843 20.3416V12.8413H76.037V9.87146H73.2843V5.25238H69.3951V9.87208H67.7497V12.8419H69.3945V20.581C69.3945 22.8013 70.7416 25.0512 73.9128 25.0512H76.037ZM91.6615 18.4512V16.8019C91.6615 12.3619 89.2078 9.24192 84.8699 9.24192C80.8315 9.24192 78.0789 12.1219 78.0789 17.2216C78.0789 23.5508 81.6091 25.2308 85.2891 25.2308C88.1012 25.2308 89.627 24.3908 91.2123 22.7712L88.8494 20.461C87.8612 21.421 87.0241 21.9312 85.3185 21.9312C83.1048 21.9312 81.908 20.4912 81.908 18.4512H91.6615ZM87.8318 15.7816H81.908C81.9381 15.0918 81.9976 14.6715 82.267 14.1016C82.6862 13.1718 83.5534 12.4819 84.8699 12.4819C86.1864 12.4819 87.0542 13.1712 87.4728 14.1016C87.7422 14.6715 87.8017 15.0918 87.8318 15.7816ZM106.089 10.7121C105.012 9.63208 103.935 9.24192 102.409 9.24192C100.734 9.24192 99.2381 10.0222 98.49 10.9219V9.42161H94.6909V25.0505H98.5796V15.6308C98.5796 13.6512 99.8961 12.7508 101.093 12.7508C102.05 12.7508 102.558 13.0813 103.157 13.6813L106.089 10.7121ZM120.696 25.0505V15.0622C120.696 13.3521 120.367 11.8825 119.11 10.6222C118.243 9.75269 116.987 9.24254 115.431 9.24254C113.995 9.24254 112.559 9.78284 111.542 10.8622V9.42223H107.742V25.0518H111.631V15.6013C111.631 13.4721 113.007 12.7521 114.234 12.7521C115.461 12.7521 116.807 13.4721 116.807 15.6013V25.0512L120.696 25.0505ZM137.129 18.4512V16.8019C137.129 12.3619 134.675 9.24192 130.337 9.24192C126.298 9.24192 123.546 12.1219 123.546 17.2216C123.546 23.5508 127.076 25.2308 130.756 25.2308C133.568 25.2308 135.094 24.3908 136.68 22.7712L134.316 20.461C133.329 21.421 132.491 21.9312 130.786 21.9312C128.572 21.9312 127.376 20.4912 127.376 18.4512H137.129ZM133.299 15.7816H127.376C127.405 15.0918 127.465 14.6715 127.735 14.1016C128.153 13.1718 129.021 12.4819 130.337 12.4819C131.653 12.4819 132.522 13.1712 132.94 14.1016C133.209 14.6715 133.269 15.0918 133.299 15.7816H133.299ZM147.158 25.0512V21.7508H145.753C144.825 21.7508 144.406 21.2413 144.406 20.3416V12.8413H147.158V9.87146H144.406V5.25238H140.517V9.87208H138.872V12.8419H140.516V20.581C140.516 22.8013 141.863 25.0512 145.034 25.0512H147.158ZM154.436 25.0512V20.6112H149.978V25.0512H154.436ZM171.047 25.0512V15.0616C171.047 13.3515 170.718 11.8819 169.462 10.6216C168.594 9.75208 167.338 9.24192 165.782 9.24192C164.346 9.24192 162.91 9.78223 161.893 10.8616V9.42161H158.094V25.0512H161.982V15.6013C161.982 13.4721 163.359 12.7521 164.585 12.7521C165.812 12.7521 167.158 13.4721 167.158 15.6013V25.0512H171.047ZM181.287 25.0512V21.7508H179.791C178.804 21.7508 178.415 21.2708 178.415 20.3416V3.69238H174.525V20.581C174.525 22.8013 175.872 25.0512 179.073 25.0512H181.287Z" fill="white"/>
</g>
<defs>
<clipPath id="clip0_5671_11628">
<rect width="181.667" height="40" fill="white"/>
</clipPath>
</defs>
</svg>
