<svg width="182" height="40" viewBox="0 0 182 40" fill="none" xmlns="http://www.w3.org/2000/svg">
<g clip-path="url(#clip0_5671_11687)">
<path d="M19.6757 39.3846C30.5423 39.3846 39.3514 30.5681 39.3514 19.6923C39.3514 8.81655 30.5423 0 19.6757 0C8.8091 0 0 8.81655 0 19.6923C0 30.5681 8.8091 39.3846 19.6757 39.3846Z" fill="#34545F"/>
<mask id="mask0_5671_11687" style="mask-type:luminance" maskUnits="userSpaceOnUse" x="0" y="0" width="40" height="40">
<path d="M19.6757 39.3846C30.5423 39.3846 39.3514 30.5681 39.3514 19.6923C39.3514 8.81655 30.5423 0 19.6757 0C8.8091 0 0 8.81655 0 19.6923C0 30.5681 8.8091 39.3846 19.6757 39.3846Z" fill="white"/>
</mask>
<g mask="url(#mask0_5671_11687)">
<mask id="mask1_5671_11687" style="mask-type:luminance" maskUnits="userSpaceOnUse" x="5" y="-6" width="28" height="28">
<path d="M12.373 -5.08368L32.7992 2.3606L25.7651 21.712L5.33895 14.2677L12.373 -5.08368Z" fill="white"/>
</mask>
<g mask="url(#mask1_5671_11687)">
<path d="M24.516 25.1338C26.4491 25.8383 28.5496 24.878 29.2238 23.0234C29.8979 21.1688 28.9053 19.0812 26.9722 18.3767C25.039 17.6721 22.9385 18.6325 22.2644 20.4871C21.5902 22.3417 22.5828 24.4292 24.5154 25.1336L24.516 25.1338ZM23.3055 28.4638C19.5449 27.0932 17.5886 22.9791 18.9355 19.2739C20.2823 15.5687 24.422 13.6762 28.182 15.0465C31.9426 16.417 33.8995 20.5314 32.5527 24.2366C31.2058 27.9417 27.0655 29.8341 23.3055 28.4638Z" fill="white"/>
<path d="M22.2809 31.2837C28.0024 33.3689 34.1421 30.706 36.0485 25.4613C37.9546 20.2178 34.9607 14.2262 29.2393 12.1411C23.5178 10.0559 17.3777 12.718 15.4715 17.9622C13.565 23.2068 16.5594 29.1986 22.2809 31.2837ZM21.0705 34.6137C13.5499 31.8729 9.55257 23.8743 12.1426 16.749C14.7325 9.62426 22.9292 6.07032 30.4497 8.81112C37.9703 11.5519 41.9674 19.5492 39.3774 26.6745C36.7873 33.7998 28.591 37.3545 21.0705 34.6137Z" fill="white"/>
<path d="M19.9362 37.7338C29.4182 41.1894 39.6562 36.7499 42.8575 27.9428C46.0587 19.1363 41.0654 9.14587 31.5839 5.69044C22.1025 2.235 11.864 6.67437 8.6628 15.4808C5.46144 24.2879 10.4542 34.2781 19.9362 37.7338ZM18.7257 41.0637C7.44463 36.9524 1.44898 24.9553 5.33395 14.2677C9.21892 3.58 21.5133 -1.75083 32.7944 2.36048C44.0755 6.47178 50.0714 18.4683 46.1864 29.156C42.3014 39.8436 30.0069 45.175 18.7257 41.0637Z" fill="white"/>
</g>
<path fill-rule="evenodd" clip-rule="evenodd" d="M21.4611 28.9071C22.7134 29.7298 24.1791 30.1674 25.6772 30.1655C29.9689 30.1655 33.4491 26.6394 33.4491 22.2886C33.4491 17.9378 29.9689 14.4117 25.6772 14.4117C21.3854 14.4117 17.9053 17.9378 17.9053 22.2886C17.9053 23.7717 18.3099 25.1594 19.0133 26.344L14.0089 31.3526C13.8445 31.5172 13.714 31.7125 13.625 31.9276C13.536 32.1426 13.4902 32.3731 13.4902 32.6058C13.4902 32.8386 13.536 33.069 13.625 33.2841C13.714 33.4991 13.8445 33.6945 14.0089 33.8591C14.1733 34.0236 14.3686 34.1542 14.5834 34.2432C14.7983 34.3323 15.0285 34.3782 15.2611 34.3782C15.4936 34.3782 15.7239 34.3323 15.9387 34.2432C16.1536 34.1542 16.3488 34.0236 16.5132 33.8591L21.4611 28.9071Z" fill="white"/>
<path d="M25.7754 24.3797C26.8588 24.3797 27.7504 23.4763 27.7504 22.3458C27.7504 21.2154 26.8588 20.312 25.7754 20.312C24.692 20.312 23.8005 21.2154 23.8005 22.3458C23.8005 23.4763 24.692 24.3797 25.7754 24.3797ZM25.7754 26.9323C23.276 26.9323 21.25 24.8788 21.25 22.3458C21.25 19.8129 23.276 17.7594 25.7754 17.7594C28.2748 17.7594 30.3008 19.8129 30.3008 22.3458C30.3008 24.8788 28.2748 26.9323 25.7754 26.9323Z" fill="#E98400"/>
</g>
<path fill-rule="evenodd" clip-rule="evenodd" d="M48.4368 25.0511V3.69232H44.2705V25.0511H48.4368ZM65.5282 25.0511V15.0616C65.5282 13.3514 65.1987 11.8819 63.94 10.6216C63.0706 9.75201 61.812 9.24186 60.2533 9.24186C58.8145 9.24186 57.3757 9.78217 56.3569 10.8616V9.42155H52.5509V25.0511H56.4467V15.6012C56.4467 13.472 57.8258 12.752 59.0543 12.752C60.2834 12.752 61.6318 13.472 61.6318 15.6012V25.0511H65.5282ZM76.1765 25.0511V21.7508H74.7678C73.8381 21.7508 73.4188 21.2412 73.4188 20.3416V12.8412H76.1765V9.8714H73.4188V5.25232H69.5224V9.87201H67.8739V12.8419H69.5218V20.5809C69.5218 22.8012 70.8714 25.0511 74.0484 25.0511H76.1765ZM91.8297 18.4511V16.8019C91.8297 12.3619 89.3715 9.24186 85.0256 9.24186C80.9798 9.24186 78.2221 12.1219 78.2221 17.2216C78.2221 23.5508 81.7588 25.2308 85.4456 25.2308C88.2629 25.2308 89.7914 24.3908 91.3796 22.7711L89.0124 20.4609C88.0224 21.4209 87.1838 21.9311 85.4751 21.9311C83.2573 21.9311 82.0583 20.4911 82.0583 18.4511H91.8297ZM87.9929 15.7816H82.0583C82.0884 15.0917 82.148 14.6714 82.418 14.1016C82.8379 13.1717 83.7067 12.4819 85.0256 12.4819C86.3445 12.4819 87.2139 13.1711 87.6332 14.1016C87.9032 14.6714 87.9628 15.0917 87.9929 15.7816ZM106.284 10.712C105.205 9.63201 104.126 9.24186 102.597 9.24186C100.919 9.24186 99.4202 10.0222 98.6707 10.9219V9.42155H94.8647V25.0505H98.7604V15.6308C98.7604 13.6511 100.079 12.7508 101.278 12.7508C102.238 12.7508 102.747 13.0812 103.346 13.6812L106.284 10.712ZM120.918 25.0505V15.0622C120.918 13.352 120.588 11.8825 119.329 10.6222C118.46 9.75263 117.201 9.24248 115.643 9.24248C114.204 9.24248 112.765 9.78278 111.746 10.8622V9.42217H107.94V25.0517H111.836V15.6012C111.836 13.472 113.215 12.752 114.443 12.752C115.673 12.752 117.021 13.472 117.021 15.6012V25.0511L120.918 25.0505ZM137.38 18.4511V16.8019C137.38 12.3619 134.922 9.24186 130.577 9.24186C126.53 9.24186 123.773 12.1219 123.773 17.2216C123.773 23.5508 127.309 25.2308 130.996 25.2308C133.813 25.2308 135.342 24.3908 136.931 22.7711L134.563 20.4609C133.573 21.4209 132.734 21.9311 131.026 21.9311C128.808 21.9311 127.609 20.4911 127.609 18.4511H137.38ZM133.543 15.7816H127.609C127.639 15.0917 127.699 14.6714 127.969 14.1016C128.388 13.1717 129.258 12.4819 130.576 12.4819C131.895 12.4819 132.765 13.1711 133.184 14.1016C133.454 14.6714 133.514 15.0917 133.544 15.7816H133.543ZM147.428 25.0511V21.7508H146.02C145.091 21.7508 144.671 21.2412 144.671 20.3416V12.8412H147.428V9.8714H144.671V5.25232H140.775V9.87201H139.126V12.8419H140.774V20.5809C140.774 22.8012 142.123 25.0511 145.3 25.0511H147.428ZM154.719 25.0511V20.6111H150.254V25.0511H154.719ZM171.361 25.0511V15.0616C171.361 13.3514 171.032 11.8819 169.773 10.6216C168.904 9.75201 167.645 9.24186 166.086 9.24186C164.648 9.24186 163.209 9.78217 162.19 10.8616V9.42155H158.384V25.0511H162.28V15.6012C162.28 13.472 163.659 12.752 164.887 12.752C166.116 12.752 167.465 13.472 167.465 15.6012V25.0511H171.361ZM181.62 25.0511V21.7508H180.121C179.132 21.7508 178.742 21.2708 178.742 20.3416V3.69232H174.846V20.5809C174.846 22.8012 176.195 25.0511 179.402 25.0511H181.62Z" fill="#34545F"/>
<path d="M19.6757 39.3846C30.5423 39.3846 39.3514 30.5681 39.3514 19.6923C39.3514 8.81655 30.5423 0 19.6757 0C8.8091 0 0 8.81655 0 19.6923C0 30.5681 8.8091 39.3846 19.6757 39.3846Z" fill="#34545F"/>
<mask id="mask2_5671_11687" style="mask-type:luminance" maskUnits="userSpaceOnUse" x="0" y="0" width="40" height="40">
<path d="M19.6757 39.3846C30.5423 39.3846 39.3514 30.5681 39.3514 19.6923C39.3514 8.81655 30.5423 0 19.6757 0C8.8091 0 0 8.81655 0 19.6923C0 30.5681 8.8091 39.3846 19.6757 39.3846Z" fill="white"/>
</mask>
<g mask="url(#mask2_5671_11687)">
<mask id="mask3_5671_11687" style="mask-type:luminance" maskUnits="userSpaceOnUse" x="5" y="-6" width="33" height="28">
<path d="M12.3721 -5.08366L32.7983 2.36064L25.7642 21.712L5.33799 14.2677L12.3721 -5.08366Z" fill="white"/>
<path d="M12.3711 -5.08366L37.1143 3.93463L35.5719 8.17815L10.8287 -0.840145L12.3711 -5.08366Z" fill="white"/>
</mask>
<g mask="url(#mask3_5671_11687)">
<path d="M24.516 25.1338C26.4491 25.8383 28.5496 24.878 29.2238 23.0234C29.8979 21.1688 28.9054 19.0812 26.9722 18.3767C25.039 17.6721 22.9385 18.6324 22.2644 20.4871C21.5902 22.3417 22.5828 24.4292 24.5154 25.1336L24.516 25.1338ZM23.3055 28.4638C19.5449 27.0932 17.5886 22.9791 18.9355 19.2739C20.2823 15.5687 24.422 13.6762 28.182 15.0465C31.9426 16.417 33.8995 20.5314 32.5527 24.2366C31.2058 27.9417 27.0655 29.8341 23.3055 28.4638Z" fill="white"/>
<path d="M22.2809 31.2837C28.0024 33.3689 34.1421 30.706 36.0485 25.4613C37.9546 20.2178 34.9607 14.2262 29.2393 12.1411C23.5178 10.0559 17.3777 12.718 15.4715 17.9622C13.565 23.2068 16.5594 29.1986 22.2809 31.2837ZM21.0705 34.6137C13.5499 31.8729 9.55258 23.8743 12.1426 16.749C14.7325 9.62426 22.9292 6.07032 30.4497 8.81112C37.9703 11.5519 41.9674 19.5492 39.3774 26.6745C36.7874 33.7998 28.591 37.3545 21.0705 34.6137Z" fill="white"/>
<path d="M19.9362 37.7338C29.4182 41.1894 39.6562 36.7499 42.8575 27.9428C46.0587 19.1363 41.0654 9.14587 31.5839 5.69044C22.1025 2.23501 11.864 6.67437 8.6628 15.4808C5.46144 24.2879 10.4542 34.2781 19.9362 37.7338ZM18.7258 41.0637C7.44463 36.9524 1.44898 24.9553 5.33395 14.2677C9.21892 3.58 21.5133 -1.75083 32.7944 2.36048C44.0755 6.47178 50.0714 18.4683 46.1864 29.156C42.3014 39.8437 30.0069 45.1751 18.7258 41.0637Z" fill="white"/>
</g>
<path fill-rule="evenodd" clip-rule="evenodd" d="M21.4601 28.907C22.7124 29.7298 24.1782 30.1673 25.6762 30.1655C29.968 30.1655 33.4481 26.6393 33.4481 22.2886C33.4481 17.9378 29.968 14.4117 25.6762 14.4117C21.3845 14.4117 17.9043 17.9378 17.9043 22.2886C17.9043 23.7717 18.3089 25.1593 19.0123 26.344L14.0079 31.3526C13.8435 31.5172 13.713 31.7125 13.6241 31.9276C13.5351 32.1426 13.4893 32.3731 13.4893 32.6058C13.4893 32.8386 13.5351 33.069 13.6241 33.2841C13.713 33.4991 13.8435 33.6945 14.0079 33.859C14.1724 34.0236 14.3676 34.1542 14.5824 34.2432C14.7973 34.3323 15.0275 34.3781 15.2601 34.3781C15.4926 34.3781 15.7229 34.3323 15.9378 34.2432C16.1526 34.1542 16.3478 34.0236 16.5123 33.859L21.4601 28.907Z" fill="white"/>
<path d="M25.7744 24.3797C26.8578 24.3797 27.7494 23.4763 27.7494 22.3459C27.7494 21.2154 26.8578 20.312 25.7744 20.312C24.691 20.312 23.7995 21.2154 23.7995 22.3459C23.7995 23.4763 24.691 24.3797 25.7744 24.3797ZM25.7744 26.9323C23.275 26.9323 21.249 24.8788 21.249 22.3459C21.249 19.8129 23.275 17.7594 25.7744 17.7594C28.2739 17.7594 30.2998 19.8129 30.2998 22.3459C30.2998 24.8788 28.2739 26.9323 25.7744 26.9323Z" fill="#E98400"/>
</g>
<path fill-rule="evenodd" clip-rule="evenodd" d="M48.4368 25.0511V3.69232H44.2705V25.0511H48.4368ZM65.5282 25.0511V15.0616C65.5282 13.3514 65.1987 11.8819 63.94 10.6216C63.0706 9.75201 61.812 9.24186 60.2533 9.24186C58.8145 9.24186 57.3757 9.78217 56.3569 10.8616V9.42155H52.5509V25.0511H56.4467V15.6012C56.4467 13.472 57.8258 12.752 59.0543 12.752C60.2834 12.752 61.6318 13.472 61.6318 15.6012V25.0511H65.5282ZM76.1765 25.0511V21.7508H74.7678C73.8381 21.7508 73.4188 21.2412 73.4188 20.3416V12.8412H76.1765V9.8714H73.4188V5.25232H69.5224V9.87201H67.8739V12.8419H69.5218V20.5809C69.5218 22.8012 70.8714 25.0511 74.0484 25.0511H76.1765ZM91.8297 18.4511V16.8019C91.8297 12.3619 89.3715 9.24186 85.0256 9.24186C80.9798 9.24186 78.2221 12.1219 78.2221 17.2216C78.2221 23.5508 81.7588 25.2308 85.4456 25.2308C88.2629 25.2308 89.7914 24.3908 91.3796 22.7711L89.0124 20.4609C88.0224 21.4209 87.1838 21.9311 85.4751 21.9311C83.2573 21.9311 82.0583 20.4911 82.0583 18.4511H91.8297ZM87.9929 15.7816H82.0583C82.0884 15.0917 82.148 14.6714 82.418 14.1016C82.8379 13.1717 83.7067 12.4819 85.0256 12.4819C86.3445 12.4819 87.2139 13.1711 87.6332 14.1016C87.9032 14.6714 87.9628 15.0917 87.9929 15.7816ZM106.284 10.712C105.205 9.63201 104.126 9.24186 102.597 9.24186C100.919 9.24186 99.4202 10.0222 98.6707 10.9219V9.42155H94.8647V25.0505H98.7604V15.6308C98.7604 13.6511 100.079 12.7508 101.278 12.7508C102.238 12.7508 102.747 13.0812 103.346 13.6812L106.284 10.712ZM120.918 25.0505V15.0622C120.918 13.352 120.588 11.8825 119.329 10.6222C118.46 9.75263 117.201 9.24248 115.643 9.24248C114.204 9.24248 112.765 9.78278 111.746 10.8622V9.42217H107.94V25.0517H111.836V15.6012C111.836 13.472 113.215 12.752 114.443 12.752C115.673 12.752 117.021 13.472 117.021 15.6012V25.0511L120.918 25.0505ZM137.38 18.4511V16.8019C137.38 12.3619 134.922 9.24186 130.577 9.24186C126.53 9.24186 123.773 12.1219 123.773 17.2216C123.773 23.5508 127.309 25.2308 130.996 25.2308C133.813 25.2308 135.342 24.3908 136.931 22.7711L134.563 20.4609C133.573 21.4209 132.734 21.9311 131.026 21.9311C128.808 21.9311 127.609 20.4911 127.609 18.4511H137.38ZM133.543 15.7816H127.609C127.639 15.0917 127.699 14.6714 127.969 14.1016C128.388 13.1717 129.258 12.4819 130.576 12.4819C131.895 12.4819 132.765 13.1711 133.184 14.1016C133.454 14.6714 133.514 15.0917 133.544 15.7816H133.543ZM147.428 25.0511V21.7508H146.02C145.091 21.7508 144.671 21.2412 144.671 20.3416V12.8412H147.428V9.8714H144.671V5.25232H140.775V9.87201H139.126V12.8419H140.774V20.5809C140.774 22.8012 142.123 25.0511 145.3 25.0511H147.428ZM154.719 25.0511V20.6111H150.254V25.0511H154.719ZM171.361 25.0511V15.0616C171.361 13.3514 171.032 11.8819 169.773 10.6216C168.904 9.75201 167.645 9.24186 166.086 9.24186C164.648 9.24186 163.209 9.78217 162.19 10.8616V9.42155H158.384V25.0511H162.28V15.6012C162.28 13.472 163.659 12.752 164.887 12.752C166.116 12.752 167.465 13.472 167.465 15.6012V25.0511H171.361ZM181.62 25.0511V21.7508H180.121C179.132 21.7508 178.742 21.2708 178.742 20.3416V3.69232H174.846V20.5809C174.846 22.8012 176.195 25.0511 179.402 25.0511H181.62Z" fill="#34545F"/>
</g>
<defs>
<clipPath id="clip0_5671_11687">
<rect width="182" height="40" fill="white"/>
</clipPath>
</defs>
</svg>
