<svg width="255" height="56" viewBox="0 0 255 56" fill="none" xmlns="http://www.w3.org/2000/svg">
<g clip-path="url(#clip0_5276_1338)">
<path d="M27.5347 55.1385C42.7417 55.1385 55.0695 42.7953 55.0695 27.5692C55.0695 12.3432 42.7417 0 27.5347 0C12.3277 0 0 12.3432 0 27.5692C0 42.7953 12.3277 55.1385 27.5347 55.1385Z" fill="#34545F"/>
<mask id="mask0_5276_1338" style="mask-type:luminance" maskUnits="userSpaceOnUse" x="0" y="0" width="56" height="56">
<path d="M27.5347 55.1385C42.7417 55.1385 55.0695 42.7953 55.0695 27.5692C55.0695 12.3432 42.7417 0 27.5347 0C12.3277 0 0 12.3432 0 27.5692C0 42.7953 12.3277 55.1385 27.5347 55.1385Z" fill="white"/>
</mask>
<g mask="url(#mask0_5276_1338)">
<mask id="mask1_5276_1338" style="mask-type:luminance" maskUnits="userSpaceOnUse" x="7" y="-8" width="39" height="39">
<path d="M17.3118 -7.11713L45.9002 3.30818L36.0597 30.3966L7.47126 19.9713L17.3118 -7.11713Z" fill="white"/>
</mask>
<g mask="url(#mask1_5276_1338)">
<path d="M34.3093 35.1867C37.0149 36.1734 39.9544 34.8295 40.8975 32.2333C41.8407 29.6372 40.4511 26.7146 37.7454 25.7279C35.0397 24.7413 32.1002 26.0852 31.1571 28.6813C30.214 31.2774 31.6036 34.2 34.3085 35.1864L34.3093 35.1867ZM32.6159 39.8481C27.3526 37.9287 24.6138 32.1689 26.498 26.9823C28.3822 21.7957 34.1754 19.1472 39.4379 21.0662C44.7013 22.9856 47.4408 28.7457 45.5566 33.9323C43.6725 39.119 37.8784 41.7672 32.6159 39.8481Z" fill="white"/>
<path d="M31.1821 43.7955C39.1898 46.7157 47.7819 42.9892 50.4489 35.6476C53.1154 28.3076 48.9242 19.9194 40.9164 16.9993C32.9087 14.0791 24.3161 17.8045 21.6494 25.1453C18.9823 32.4869 23.1743 40.8754 31.1821 43.7955ZM29.4887 48.4569C18.963 44.6185 13.367 33.4204 16.9903 23.4463C20.6134 13.473 32.084 8.49953 42.6098 12.3379C53.1355 16.1763 58.7313 27.3725 55.108 37.3466C51.4846 47.3207 40.0145 52.2953 29.4887 48.4569Z" fill="white"/>
<path d="M27.902 52.8244C41.173 57.664 55.5003 51.4512 59.9789 39.1229C64.4571 26.7954 57.4669 12.8087 44.1966 7.96952C30.9264 3.1303 16.5983 9.34281 12.1201 21.6703C7.64152 33.9986 14.631 47.9849 27.902 52.8244ZM26.2087 57.4858C10.4197 51.728 2.02614 34.9321 7.46101 19.9713C12.8959 5.01046 30.101 -2.44957 45.89 3.30818C61.679 9.06592 70.0728 25.8611 64.6379 40.8219C59.2031 55.7827 41.9977 63.2435 26.2087 57.4858Z" fill="white"/>
</g>
<path fill-rule="evenodd" clip-rule="evenodd" d="M30.0323 40.4699C31.7848 41.6218 33.8361 42.2343 35.9325 42.2317C41.9385 42.2317 46.8087 37.2951 46.8087 31.204C46.8087 25.1129 41.9385 20.1763 35.9325 20.1763C29.9265 20.1763 25.0563 25.1129 25.0563 31.204C25.0563 33.2803 25.6224 35.2231 26.6068 36.8816L19.6035 43.8936C19.3734 44.124 19.1909 44.3976 19.0663 44.6986C18.9418 44.9996 18.8777 45.3223 18.8777 45.6481C18.8777 45.974 18.9418 46.2966 19.0663 46.5977C19.1909 46.8987 19.3734 47.1723 19.6035 47.4027C19.8336 47.6331 20.1068 47.8158 20.4075 47.9405C20.7082 48.0652 21.0304 48.1294 21.3559 48.1294C21.6813 48.1294 22.0035 48.0652 22.3042 47.9405C22.6049 47.8158 22.8781 47.6331 23.1082 47.4027L30.0323 40.4699Z" fill="white"/>
<path d="M36.0705 34.1316C37.5867 34.1316 38.8343 32.8669 38.8343 31.2842C38.8343 29.7016 37.5867 28.4368 36.0705 28.4368C34.5544 28.4368 33.3067 29.7016 33.3067 31.2842C33.3067 32.8669 34.5544 34.1316 36.0705 34.1316ZM36.0705 37.7053C32.5728 37.7053 29.7375 34.8303 29.7375 31.2842C29.7375 27.7381 32.5728 24.8632 36.0705 24.8632C39.5683 24.8632 42.4035 27.7381 42.4035 31.2842C42.4035 34.8303 39.5683 37.7053 36.0705 37.7053Z" fill="#E98400"/>
</g>
<path fill-rule="evenodd" clip-rule="evenodd" d="M67.7836 35.0715V5.16925H61.9531V35.0715H67.7836ZM91.7018 35.0715V21.0862C91.7018 18.692 91.2406 16.6346 89.4793 14.8702C88.2626 13.6528 86.5012 12.9386 84.3199 12.9386C82.3065 12.9386 80.293 13.695 78.8672 15.2062V13.1902H73.5409V35.0715H78.9928V21.8417C78.9928 18.8608 80.9228 17.8528 82.642 17.8528C84.3621 17.8528 86.2491 18.8608 86.2491 21.8417V35.0715H91.7018ZM106.603 35.0715V30.4511H104.632C103.331 30.4511 102.744 29.7377 102.744 28.4782V17.9777H106.603V13.82H102.744V7.35325H97.2914V13.8208H94.9845V17.9786H97.2905V28.8133C97.2905 31.9217 99.1792 35.0715 103.625 35.0715H106.603ZM128.509 25.8315V23.5226C128.509 17.3066 125.069 12.9386 118.987 12.9386C113.325 12.9386 109.466 16.9706 109.466 24.1102C109.466 32.9711 114.415 35.3231 119.575 35.3231C123.517 35.3231 125.656 34.1471 127.879 31.8795L124.566 28.6453C123.181 29.9893 122.007 30.7035 119.616 30.7035C116.512 30.7035 114.834 28.6875 114.834 25.8315H128.509ZM123.14 22.0942H114.834C114.877 21.1284 114.96 20.54 115.338 19.7422C115.926 18.4404 117.141 17.4746 118.987 17.4746C120.833 17.4746 122.049 18.4395 122.636 19.7422C123.014 20.54 123.097 21.1284 123.14 22.0942ZM148.737 14.9968C147.226 13.4848 145.716 12.9386 143.577 12.9386C141.228 12.9386 139.131 14.031 138.082 15.2906V13.1902H132.756V35.0707H138.208V21.8831C138.208 19.1115 140.054 17.8511 141.732 17.8511C143.074 17.8511 143.786 18.3137 144.625 19.1537L148.737 14.9968ZM169.216 35.0707V21.087C169.216 18.6928 168.754 16.6355 166.992 14.871C165.776 13.6537 164.015 12.9395 161.834 12.9395C159.82 12.9395 157.807 13.6959 156.381 15.207V13.191H151.054V35.0724H156.507V21.8417C156.507 18.8608 158.436 17.8528 160.155 17.8528C161.876 17.8528 163.763 18.8608 163.763 21.8417V35.0715L169.216 35.0707ZM192.254 25.8315V23.5226C192.254 17.3066 188.814 12.9386 182.733 12.9386C177.07 12.9386 173.211 16.9706 173.211 24.1102C173.211 32.9711 178.16 35.3231 183.319 35.3231C187.262 35.3231 189.401 34.1471 191.625 31.8795L188.311 28.6453C186.926 29.9893 185.752 30.7035 183.362 30.7035C180.258 30.7035 178.58 28.6875 178.58 25.8315H192.254ZM186.884 22.0942H178.58C178.621 21.1284 178.706 20.54 179.083 19.7422C179.67 18.4404 180.887 17.4746 182.732 17.4746C184.577 17.4746 185.795 18.4395 186.382 19.7422C186.759 20.54 186.843 21.1284 186.885 22.0942H186.884ZM206.315 35.0715V30.4511H204.345C203.044 30.4511 202.457 29.7377 202.457 28.4782V17.9777H206.315V13.82H202.457V7.35325H197.004V13.8208H194.697V17.9786H197.003V28.8133C197.003 31.9217 198.891 35.0715 203.337 35.0715H206.315ZM216.518 35.0715V28.8555H210.269V35.0715H216.518ZM239.808 35.0715V21.0862C239.808 18.692 239.347 16.6346 237.585 14.8702C236.368 13.6528 234.607 12.9386 232.426 12.9386C230.412 12.9386 228.399 13.695 226.973 15.2062V13.1902H221.647V35.0715H227.099V21.8417C227.099 18.8608 229.029 17.8528 230.748 17.8528C232.468 17.8528 234.355 18.8608 234.355 21.8417V35.0715H239.808ZM254.164 35.0715V30.4511H252.067C250.682 30.4511 250.137 29.7791 250.137 28.4782V5.16925H244.684V28.8133C244.684 31.9217 246.572 35.0715 251.06 35.0715H254.164Z" fill="#34545F"/>
<path d="M27.5347 55.1385C42.7417 55.1385 55.0695 42.7953 55.0695 27.5692C55.0695 12.3432 42.7417 0 27.5347 0C12.3277 0 0 12.3432 0 27.5692C0 42.7953 12.3277 55.1385 27.5347 55.1385Z" fill="#34545F"/>
<mask id="mask2_5276_1338" style="mask-type:luminance" maskUnits="userSpaceOnUse" x="0" y="0" width="56" height="56">
<path d="M27.5347 55.1385C42.7417 55.1385 55.0695 42.7953 55.0695 27.5692C55.0695 12.3432 42.7417 0 27.5347 0C12.3277 0 0 12.3432 0 27.5692C0 42.7953 12.3277 55.1385 27.5347 55.1385Z" fill="white"/>
</mask>
<g mask="url(#mask2_5276_1338)">
<mask id="mask3_5276_1338" style="mask-type:luminance" maskUnits="userSpaceOnUse" x="7" y="-8" width="45" height="39">
<path d="M17.312 -7.11713L45.9005 3.30818L36.06 30.3966L7.47151 19.9713L17.312 -7.11713Z" fill="white"/>
<path d="M17.312 -7.11713L51.9393 5.51035L49.7818 11.4494L15.1545 -1.17806L17.312 -7.11713Z" fill="white"/>
</mask>
<g mask="url(#mask3_5276_1338)">
<path d="M34.3095 35.1867C37.0152 36.1734 39.9547 34.8295 40.8978 32.2333C41.8409 29.6372 40.4513 26.7146 37.7456 25.7279C35.04 24.7413 32.1005 26.0852 31.1574 28.6813C30.2142 31.2774 31.6038 34.2 34.3087 35.1864L34.3095 35.1867ZM32.6162 39.8481C27.3528 37.9287 24.6141 32.1689 26.4982 26.9823C28.3824 21.7957 34.1757 19.1472 39.4382 21.0662C44.7015 22.9856 47.4411 28.7457 45.5569 33.9323C43.6727 39.119 37.8787 41.7672 32.6162 39.8481Z" fill="white"/>
<path d="M31.1823 43.7955C39.1901 46.7157 47.7822 42.9892 50.4492 35.6476C53.1156 28.3076 48.9244 19.9194 40.9167 16.9993C32.9089 14.0791 24.3163 17.8045 21.6496 25.1453C18.9826 32.4869 23.1746 40.8754 31.1823 43.7955ZM29.489 48.4569C18.9632 44.6185 13.3672 33.4204 16.9905 23.4463C20.6136 13.473 32.0843 8.49953 42.61 12.3379C53.1358 16.1763 58.7316 27.3725 55.1082 37.3466C51.4849 47.3207 40.0147 52.2953 29.489 48.4569Z" fill="white"/>
<path d="M27.9023 52.8244C41.1733 57.664 55.5006 51.4512 59.9791 39.1229C64.4574 26.7954 57.4671 12.8087 44.1969 7.96952C30.9267 3.1303 16.5986 9.34281 12.1203 21.6703C7.64176 33.9986 14.6312 47.9849 27.9023 52.8244ZM26.2089 57.4858C10.4199 51.728 2.02639 34.9321 7.46125 19.9713C12.8961 5.01046 30.1012 -2.44957 45.8902 3.30818C61.6792 9.06592 70.0731 25.8611 64.6382 40.8219C59.2033 55.7827 41.9979 63.2435 26.2089 57.4858Z" fill="white"/>
</g>
<path fill-rule="evenodd" clip-rule="evenodd" d="M30.0325 40.4699C31.7851 41.6218 33.8363 42.2343 35.9327 42.2317C41.9387 42.2317 46.8089 37.2951 46.8089 31.204C46.8089 25.1129 41.9387 20.1763 35.9327 20.1763C29.9267 20.1763 25.0565 25.1129 25.0565 31.204C25.0565 33.2803 25.6227 35.2231 26.6071 36.8816L19.6038 43.8936C19.3737 44.124 19.1911 44.3976 19.0666 44.6986C18.942 44.9996 18.8779 45.3223 18.8779 45.6481C18.8779 45.974 18.942 46.2966 19.0666 46.5977C19.1911 46.8987 19.3736 47.1723 19.6038 47.4027C19.8339 47.6331 20.1071 47.8158 20.4077 47.9405C20.7084 48.0652 21.0307 48.1294 21.3561 48.1294C21.6815 48.1294 22.0038 48.0652 22.3044 47.9405C22.6051 47.8158 22.8783 47.6331 23.1084 47.4027L30.0325 40.4699Z" fill="white"/>
<path d="M36.0705 34.1316C37.5867 34.1316 38.8343 32.8669 38.8343 31.2842C38.8343 29.7016 37.5867 28.4368 36.0705 28.4368C34.5544 28.4368 33.3067 29.7016 33.3067 31.2842C33.3067 32.8669 34.5544 34.1316 36.0705 34.1316ZM36.0705 37.7053C32.5728 37.7053 29.7375 34.8303 29.7375 31.2842C29.7375 27.7381 32.5728 24.8632 36.0705 24.8632C39.5683 24.8632 42.4035 27.7381 42.4035 31.2842C42.4035 34.8303 39.5683 37.7053 36.0705 37.7053Z" fill="#E98400"/>
</g>
<path fill-rule="evenodd" clip-rule="evenodd" d="M67.7836 35.0715V5.16925H61.9531V35.0715H67.7836ZM91.7018 35.0715V21.0862C91.7018 18.692 91.2406 16.6346 89.4793 14.8702C88.2626 13.6528 86.5012 12.9386 84.3199 12.9386C82.3065 12.9386 80.293 13.695 78.8672 15.2062V13.1902H73.5409V35.0715H78.9928V21.8417C78.9928 18.8608 80.9228 17.8528 82.642 17.8528C84.3621 17.8528 86.2491 18.8608 86.2491 21.8417V35.0715H91.7018ZM106.603 35.0715V30.4511H104.632C103.331 30.4511 102.744 29.7377 102.744 28.4782V17.9777H106.603V13.82H102.744V7.35325H97.2914V13.8208H94.9845V17.9786H97.2905V28.8133C97.2905 31.9217 99.1792 35.0715 103.625 35.0715H106.603ZM128.509 25.8315V23.5226C128.509 17.3066 125.069 12.9386 118.987 12.9386C113.325 12.9386 109.466 16.9706 109.466 24.1102C109.466 32.9711 114.415 35.3231 119.575 35.3231C123.517 35.3231 125.656 34.1471 127.879 31.8795L124.566 28.6453C123.181 29.9893 122.007 30.7035 119.616 30.7035C116.512 30.7035 114.834 28.6875 114.834 25.8315H128.509ZM123.14 22.0942H114.834C114.877 21.1284 114.96 20.54 115.338 19.7422C115.926 18.4404 117.141 17.4746 118.987 17.4746C120.833 17.4746 122.049 18.4395 122.636 19.7422C123.014 20.54 123.097 21.1284 123.14 22.0942ZM148.737 14.9968C147.226 13.4848 145.716 12.9386 143.577 12.9386C141.228 12.9386 139.131 14.031 138.082 15.2906V13.1902H132.756V35.0707H138.208V21.8831C138.208 19.1115 140.054 17.8511 141.732 17.8511C143.074 17.8511 143.786 18.3137 144.625 19.1537L148.737 14.9968ZM169.216 35.0707V21.087C169.216 18.6928 168.754 16.6355 166.992 14.871C165.776 13.6537 164.015 12.9395 161.834 12.9395C159.82 12.9395 157.807 13.6959 156.381 15.207V13.191H151.054V35.0724H156.507V21.8417C156.507 18.8608 158.436 17.8528 160.155 17.8528C161.876 17.8528 163.763 18.8608 163.763 21.8417V35.0715L169.216 35.0707ZM192.254 25.8315V23.5226C192.254 17.3066 188.814 12.9386 182.733 12.9386C177.07 12.9386 173.211 16.9706 173.211 24.1102C173.211 32.9711 178.16 35.3231 183.319 35.3231C187.262 35.3231 189.401 34.1471 191.625 31.8795L188.311 28.6453C186.926 29.9893 185.752 30.7035 183.362 30.7035C180.258 30.7035 178.58 28.6875 178.58 25.8315H192.254ZM186.884 22.0942H178.58C178.621 21.1284 178.706 20.54 179.083 19.7422C179.67 18.4404 180.887 17.4746 182.732 17.4746C184.577 17.4746 185.795 18.4395 186.382 19.7422C186.759 20.54 186.843 21.1284 186.885 22.0942H186.884ZM206.315 35.0715V30.4511H204.345C203.044 30.4511 202.457 29.7377 202.457 28.4782V17.9777H206.315V13.82H202.457V7.35325H197.004V13.8208H194.697V17.9786H197.003V28.8133C197.003 31.9217 198.891 35.0715 203.337 35.0715H206.315ZM216.518 35.0715V28.8555H210.269V35.0715H216.518ZM239.808 35.0715V21.0862C239.808 18.692 239.347 16.6346 237.585 14.8702C236.368 13.6528 234.607 12.9386 232.426 12.9386C230.412 12.9386 228.399 13.695 226.973 15.2062V13.1902H221.647V35.0715H227.099V21.8417C227.099 18.8608 229.029 17.8528 230.748 17.8528C232.468 17.8528 234.355 18.8608 234.355 21.8417V35.0715H239.808ZM254.164 35.0715V30.4511H252.067C250.682 30.4511 250.137 29.7791 250.137 28.4782V5.16925H244.684V28.8133C244.684 31.9217 246.572 35.0715 251.06 35.0715H254.164Z" fill="#34545F"/>
</g>
<g clip-path="url(#clip1_5276_1338)">
<path d="M27.5347 55.1385C42.7417 55.1385 55.0695 42.7953 55.0695 27.5692C55.0695 12.3432 42.7417 0 27.5347 0C12.3277 0 0 12.3432 0 27.5692C0 42.7953 12.3277 55.1385 27.5347 55.1385Z" fill="#34545F"/>
<mask id="mask4_5276_1338" style="mask-type:luminance" maskUnits="userSpaceOnUse" x="0" y="0" width="56" height="56">
<path d="M27.5347 55.1385C42.7417 55.1385 55.0695 42.7953 55.0695 27.5692C55.0695 12.3432 42.7417 0 27.5347 0C12.3277 0 0 12.3432 0 27.5692C0 42.7953 12.3277 55.1385 27.5347 55.1385Z" fill="white"/>
</mask>
<g mask="url(#mask4_5276_1338)">
<mask id="mask5_5276_1338" style="mask-type:luminance" maskUnits="userSpaceOnUse" x="7" y="-8" width="39" height="39">
<path d="M17.3118 -7.11713L45.9002 3.30818L36.0597 30.3966L7.47126 19.9713L17.3118 -7.11713Z" fill="white"/>
</mask>
<g mask="url(#mask5_5276_1338)">
<path d="M34.3093 35.1867C37.0149 36.1734 39.9544 34.8295 40.8975 32.2333C41.8407 29.6372 40.4511 26.7146 37.7454 25.7279C35.0397 24.7413 32.1002 26.0852 31.1571 28.6813C30.214 31.2774 31.6036 34.2 34.3085 35.1864L34.3093 35.1867ZM32.6159 39.8481C27.3526 37.9287 24.6138 32.1689 26.498 26.9823C28.3822 21.7957 34.1754 19.1472 39.4379 21.0662C44.7013 22.9856 47.4408 28.7457 45.5566 33.9323C43.6725 39.119 37.8784 41.7672 32.6159 39.8481Z" fill="white"/>
<path d="M31.1821 43.7955C39.1898 46.7157 47.7819 42.9892 50.4489 35.6476C53.1154 28.3076 48.9242 19.9194 40.9164 16.9993C32.9087 14.0791 24.3161 17.8045 21.6494 25.1453C18.9823 32.4869 23.1743 40.8754 31.1821 43.7955ZM29.4887 48.4569C18.963 44.6185 13.367 33.4204 16.9903 23.4463C20.6134 13.473 32.084 8.49953 42.6098 12.3379C53.1355 16.1763 58.7313 27.3725 55.108 37.3466C51.4846 47.3207 40.0145 52.2953 29.4887 48.4569Z" fill="white"/>
<path d="M27.902 52.8244C41.173 57.664 55.5003 51.4512 59.9789 39.1229C64.4571 26.7954 57.4669 12.8087 44.1966 7.96952C30.9264 3.1303 16.5983 9.34281 12.1201 21.6703C7.64152 33.9986 14.631 47.9849 27.902 52.8244ZM26.2087 57.4858C10.4197 51.728 2.02614 34.9321 7.46101 19.9713C12.8959 5.01046 30.101 -2.44957 45.89 3.30818C61.679 9.06592 70.0728 25.8611 64.6379 40.8219C59.2031 55.7827 41.9977 63.2435 26.2087 57.4858Z" fill="white"/>
</g>
<path fill-rule="evenodd" clip-rule="evenodd" d="M30.0323 40.4699C31.7848 41.6218 33.8361 42.2343 35.9325 42.2317C41.9385 42.2317 46.8087 37.2951 46.8087 31.204C46.8087 25.1129 41.9385 20.1763 35.9325 20.1763C29.9265 20.1763 25.0563 25.1129 25.0563 31.204C25.0563 33.2803 25.6224 35.2231 26.6068 36.8816L19.6035 43.8936C19.3734 44.124 19.1909 44.3976 19.0663 44.6986C18.9418 44.9996 18.8777 45.3223 18.8777 45.6481C18.8777 45.974 18.9418 46.2966 19.0663 46.5977C19.1909 46.8987 19.3734 47.1723 19.6035 47.4027C19.8336 47.6331 20.1068 47.8158 20.4075 47.9405C20.7082 48.0652 21.0304 48.1294 21.3559 48.1294C21.6813 48.1294 22.0035 48.0652 22.3042 47.9405C22.6049 47.8158 22.8781 47.6331 23.1082 47.4027L30.0323 40.4699Z" fill="white"/>
<path d="M36.0705 34.1316C37.5867 34.1316 38.8343 32.8669 38.8343 31.2842C38.8343 29.7016 37.5867 28.4368 36.0705 28.4368C34.5544 28.4368 33.3067 29.7016 33.3067 31.2842C33.3067 32.8669 34.5544 34.1316 36.0705 34.1316ZM36.0705 37.7053C32.5728 37.7053 29.7375 34.8303 29.7375 31.2842C29.7375 27.7381 32.5728 24.8632 36.0705 24.8632C39.5683 24.8632 42.4035 27.7381 42.4035 31.2842C42.4035 34.8303 39.5683 37.7053 36.0705 37.7053Z" fill="#E98400"/>
</g>
<path fill-rule="evenodd" clip-rule="evenodd" d="M67.7836 35.0715V5.16925H61.9531V35.0715H67.7836ZM91.7018 35.0715V21.0862C91.7018 18.692 91.2406 16.6346 89.4793 14.8702C88.2626 13.6528 86.5012 12.9386 84.3199 12.9386C82.3065 12.9386 80.293 13.695 78.8672 15.2062V13.1902H73.5409V35.0715H78.9928V21.8417C78.9928 18.8608 80.9228 17.8528 82.642 17.8528C84.3621 17.8528 86.2491 18.8608 86.2491 21.8417V35.0715H91.7018ZM106.603 35.0715V30.4511H104.632C103.331 30.4511 102.744 29.7377 102.744 28.4782V17.9777H106.603V13.82H102.744V7.35325H97.2914V13.8208H94.9845V17.9786H97.2905V28.8133C97.2905 31.9217 99.1792 35.0715 103.625 35.0715H106.603ZM128.509 25.8315V23.5226C128.509 17.3066 125.069 12.9386 118.987 12.9386C113.325 12.9386 109.466 16.9706 109.466 24.1102C109.466 32.9711 114.415 35.3231 119.575 35.3231C123.517 35.3231 125.656 34.1471 127.879 31.8795L124.566 28.6453C123.181 29.9893 122.007 30.7035 119.616 30.7035C116.512 30.7035 114.834 28.6875 114.834 25.8315H128.509ZM123.14 22.0942H114.834C114.877 21.1284 114.96 20.54 115.338 19.7422C115.926 18.4404 117.141 17.4746 118.987 17.4746C120.833 17.4746 122.049 18.4395 122.636 19.7422C123.014 20.54 123.097 21.1284 123.14 22.0942ZM148.737 14.9968C147.226 13.4848 145.716 12.9386 143.577 12.9386C141.228 12.9386 139.131 14.031 138.082 15.2906V13.1902H132.756V35.0707H138.208V21.8831C138.208 19.1115 140.054 17.8511 141.732 17.8511C143.074 17.8511 143.786 18.3137 144.625 19.1537L148.737 14.9968ZM169.216 35.0707V21.087C169.216 18.6928 168.754 16.6355 166.992 14.871C165.776 13.6537 164.015 12.9395 161.834 12.9395C159.82 12.9395 157.807 13.6959 156.381 15.207V13.191H151.054V35.0724H156.507V21.8417C156.507 18.8608 158.436 17.8528 160.155 17.8528C161.876 17.8528 163.763 18.8608 163.763 21.8417V35.0715L169.216 35.0707ZM192.254 25.8315V23.5226C192.254 17.3066 188.814 12.9386 182.733 12.9386C177.07 12.9386 173.211 16.9706 173.211 24.1102C173.211 32.9711 178.16 35.3231 183.319 35.3231C187.262 35.3231 189.401 34.1471 191.625 31.8795L188.311 28.6453C186.926 29.9893 185.752 30.7035 183.362 30.7035C180.258 30.7035 178.58 28.6875 178.58 25.8315H192.254ZM186.884 22.0942H178.58C178.621 21.1284 178.706 20.54 179.083 19.7422C179.67 18.4404 180.887 17.4746 182.732 17.4746C184.577 17.4746 185.795 18.4395 186.382 19.7422C186.759 20.54 186.843 21.1284 186.885 22.0942H186.884ZM206.315 35.0715V30.4511H204.345C203.044 30.4511 202.457 29.7377 202.457 28.4782V17.9777H206.315V13.82H202.457V7.35325H197.004V13.8208H194.697V17.9786H197.003V28.8133C197.003 31.9217 198.891 35.0715 203.337 35.0715H206.315ZM216.518 35.0715V28.8555H210.269V35.0715H216.518ZM239.808 35.0715V21.0862C239.808 18.692 239.347 16.6346 237.585 14.8702C236.368 13.6528 234.607 12.9386 232.426 12.9386C230.412 12.9386 228.399 13.695 226.973 15.2062V13.1902H221.647V35.0715H227.099V21.8417C227.099 18.8608 229.029 17.8528 230.748 17.8528C232.468 17.8528 234.355 18.8608 234.355 21.8417V35.0715H239.808ZM254.164 35.0715V30.4511H252.067C250.682 30.4511 250.137 29.7791 250.137 28.4782V5.16925H244.684V28.8133C244.684 31.9217 246.572 35.0715 251.06 35.0715H254.164Z" fill="#34545F"/>
<path d="M27.5347 55.1385C42.7417 55.1385 55.0695 42.7953 55.0695 27.5692C55.0695 12.3432 42.7417 0 27.5347 0C12.3277 0 0 12.3432 0 27.5692C0 42.7953 12.3277 55.1385 27.5347 55.1385Z" fill="#34545F"/>
<mask id="mask6_5276_1338" style="mask-type:luminance" maskUnits="userSpaceOnUse" x="0" y="0" width="56" height="56">
<path d="M27.5347 55.1385C42.7417 55.1385 55.0695 42.7953 55.0695 27.5692C55.0695 12.3432 42.7417 0 27.5347 0C12.3277 0 0 12.3432 0 27.5692C0 42.7953 12.3277 55.1385 27.5347 55.1385Z" fill="white"/>
</mask>
<g mask="url(#mask6_5276_1338)">
<mask id="mask7_5276_1338" style="mask-type:luminance" maskUnits="userSpaceOnUse" x="7" y="-8" width="45" height="39">
<path d="M17.312 -7.11713L45.9005 3.30818L36.06 30.3966L7.47151 19.9713L17.312 -7.11713Z" fill="white"/>
<path d="M17.312 -7.11713L51.9393 5.51035L49.7818 11.4494L15.1545 -1.17806L17.312 -7.11713Z" fill="white"/>
</mask>
<g mask="url(#mask7_5276_1338)">
<path d="M34.3095 35.1867C37.0152 36.1734 39.9547 34.8295 40.8978 32.2333C41.8409 29.6372 40.4513 26.7146 37.7456 25.7279C35.04 24.7413 32.1005 26.0852 31.1574 28.6813C30.2142 31.2774 31.6038 34.2 34.3087 35.1864L34.3095 35.1867ZM32.6162 39.8481C27.3528 37.9287 24.6141 32.1689 26.4982 26.9823C28.3824 21.7957 34.1757 19.1472 39.4382 21.0662C44.7015 22.9856 47.4411 28.7457 45.5569 33.9323C43.6727 39.119 37.8787 41.7672 32.6162 39.8481Z" fill="white"/>
<path d="M31.1823 43.7955C39.1901 46.7157 47.7822 42.9892 50.4492 35.6476C53.1156 28.3076 48.9244 19.9194 40.9167 16.9993C32.9089 14.0791 24.3163 17.8045 21.6496 25.1453C18.9826 32.4869 23.1746 40.8754 31.1823 43.7955ZM29.489 48.4569C18.9632 44.6185 13.3672 33.4204 16.9905 23.4463C20.6136 13.473 32.0843 8.49953 42.61 12.3379C53.1358 16.1763 58.7316 27.3725 55.1082 37.3466C51.4849 47.3207 40.0147 52.2953 29.489 48.4569Z" fill="white"/>
<path d="M27.9023 52.8244C41.1733 57.664 55.5006 51.4512 59.9791 39.1229C64.4574 26.7954 57.4671 12.8087 44.1969 7.96952C30.9267 3.1303 16.5986 9.34281 12.1203 21.6703C7.64176 33.9986 14.6312 47.9849 27.9023 52.8244ZM26.2089 57.4858C10.4199 51.728 2.02639 34.9321 7.46125 19.9713C12.8961 5.01046 30.1012 -2.44957 45.8902 3.30818C61.6792 9.06592 70.0731 25.8611 64.6382 40.8219C59.2033 55.7827 41.9979 63.2435 26.2089 57.4858Z" fill="white"/>
</g>
<path fill-rule="evenodd" clip-rule="evenodd" d="M30.0325 40.4699C31.7851 41.6218 33.8363 42.2343 35.9327 42.2317C41.9387 42.2317 46.8089 37.2951 46.8089 31.204C46.8089 25.1129 41.9387 20.1763 35.9327 20.1763C29.9267 20.1763 25.0565 25.1129 25.0565 31.204C25.0565 33.2803 25.6227 35.2231 26.6071 36.8816L19.6038 43.8936C19.3737 44.124 19.1911 44.3976 19.0666 44.6986C18.942 44.9996 18.8779 45.3223 18.8779 45.6481C18.8779 45.974 18.942 46.2966 19.0666 46.5977C19.1911 46.8987 19.3736 47.1723 19.6038 47.4027C19.8339 47.6331 20.1071 47.8158 20.4077 47.9405C20.7084 48.0652 21.0307 48.1294 21.3561 48.1294C21.6815 48.1294 22.0038 48.0652 22.3044 47.9405C22.6051 47.8158 22.8783 47.6331 23.1084 47.4027L30.0325 40.4699Z" fill="white"/>
<path d="M36.0705 34.1316C37.5867 34.1316 38.8343 32.8669 38.8343 31.2842C38.8343 29.7016 37.5867 28.4368 36.0705 28.4368C34.5544 28.4368 33.3067 29.7016 33.3067 31.2842C33.3067 32.8669 34.5544 34.1316 36.0705 34.1316ZM36.0705 37.7053C32.5728 37.7053 29.7375 34.8303 29.7375 31.2842C29.7375 27.7381 32.5728 24.8632 36.0705 24.8632C39.5683 24.8632 42.4035 27.7381 42.4035 31.2842C42.4035 34.8303 39.5683 37.7053 36.0705 37.7053Z" fill="#E98400"/>
</g>
<path fill-rule="evenodd" clip-rule="evenodd" d="M67.7836 35.0715V5.16925H61.9531V35.0715H67.7836ZM91.7018 35.0715V21.0862C91.7018 18.692 91.2406 16.6346 89.4793 14.8702C88.2626 13.6528 86.5012 12.9386 84.3199 12.9386C82.3065 12.9386 80.293 13.695 78.8672 15.2062V13.1902H73.5409V35.0715H78.9928V21.8417C78.9928 18.8608 80.9228 17.8528 82.642 17.8528C84.3621 17.8528 86.2491 18.8608 86.2491 21.8417V35.0715H91.7018ZM106.603 35.0715V30.4511H104.632C103.331 30.4511 102.744 29.7377 102.744 28.4782V17.9777H106.603V13.82H102.744V7.35325H97.2914V13.8208H94.9845V17.9786H97.2905V28.8133C97.2905 31.9217 99.1792 35.0715 103.625 35.0715H106.603ZM128.509 25.8315V23.5226C128.509 17.3066 125.069 12.9386 118.987 12.9386C113.325 12.9386 109.466 16.9706 109.466 24.1102C109.466 32.9711 114.415 35.3231 119.575 35.3231C123.517 35.3231 125.656 34.1471 127.879 31.8795L124.566 28.6453C123.181 29.9893 122.007 30.7035 119.616 30.7035C116.512 30.7035 114.834 28.6875 114.834 25.8315H128.509ZM123.14 22.0942H114.834C114.877 21.1284 114.96 20.54 115.338 19.7422C115.926 18.4404 117.141 17.4746 118.987 17.4746C120.833 17.4746 122.049 18.4395 122.636 19.7422C123.014 20.54 123.097 21.1284 123.14 22.0942ZM148.737 14.9968C147.226 13.4848 145.716 12.9386 143.577 12.9386C141.228 12.9386 139.131 14.031 138.082 15.2906V13.1902H132.756V35.0707H138.208V21.8831C138.208 19.1115 140.054 17.8511 141.732 17.8511C143.074 17.8511 143.786 18.3137 144.625 19.1537L148.737 14.9968ZM169.216 35.0707V21.087C169.216 18.6928 168.754 16.6355 166.992 14.871C165.776 13.6537 164.015 12.9395 161.834 12.9395C159.82 12.9395 157.807 13.6959 156.381 15.207V13.191H151.054V35.0724H156.507V21.8417C156.507 18.8608 158.436 17.8528 160.155 17.8528C161.876 17.8528 163.763 18.8608 163.763 21.8417V35.0715L169.216 35.0707ZM192.254 25.8315V23.5226C192.254 17.3066 188.814 12.9386 182.733 12.9386C177.07 12.9386 173.211 16.9706 173.211 24.1102C173.211 32.9711 178.16 35.3231 183.319 35.3231C187.262 35.3231 189.401 34.1471 191.625 31.8795L188.311 28.6453C186.926 29.9893 185.752 30.7035 183.362 30.7035C180.258 30.7035 178.58 28.6875 178.58 25.8315H192.254ZM186.884 22.0942H178.58C178.621 21.1284 178.706 20.54 179.083 19.7422C179.67 18.4404 180.887 17.4746 182.732 17.4746C184.577 17.4746 185.795 18.4395 186.382 19.7422C186.759 20.54 186.843 21.1284 186.885 22.0942H186.884ZM206.315 35.0715V30.4511H204.345C203.044 30.4511 202.457 29.7377 202.457 28.4782V17.9777H206.315V13.82H202.457V7.35325H197.004V13.8208H194.697V17.9786H197.003V28.8133C197.003 31.9217 198.891 35.0715 203.337 35.0715H206.315ZM216.518 35.0715V28.8555H210.269V35.0715H216.518ZM239.808 35.0715V21.0862C239.808 18.692 239.347 16.6346 237.585 14.8702C236.368 13.6528 234.607 12.9386 232.426 12.9386C230.412 12.9386 228.399 13.695 226.973 15.2062V13.1902H221.647V35.0715H227.099V21.8417C227.099 18.8608 229.029 17.8528 230.748 17.8528C232.468 17.8528 234.355 18.8608 234.355 21.8417V35.0715H239.808ZM254.164 35.0715V30.4511H252.067C250.682 30.4511 250.137 29.7791 250.137 28.4782V5.16925H244.684V28.8133C244.684 31.9217 246.572 35.0715 251.06 35.0715H254.164Z" fill="#34545F"/>
</g>
<path d="M250.677 51.832H249.323V50.8762C249.323 50.3851 249.403 50.0798 249.774 49.7347L250.398 49.1639C250.996 48.6064 251.327 48.2082 251.327 47.5577C251.327 46.8011 250.757 46.3896 250.106 46.3896C249.429 46.3896 248.872 46.7746 248.858 47.5179H247.385C247.385 45.9383 248.619 45.0622 250.106 45.0622C251.606 45.0622 252.867 45.9383 252.867 47.5975C252.867 48.6595 252.217 49.4161 251.513 50.0798L251.102 50.478C250.823 50.7435 250.677 50.9293 250.677 51.3807V51.832ZM250.783 54.3408V52.7744H249.217V54.3408H250.783Z" fill="#E98400"/>
<path d="M240.48 45.1816H246.095V46.5223H242.02V48.9382H245.697V50.2656H242.02V53.0133H246.095V54.3408H240.48V45.1816Z" fill="#E98400"/>
<path d="M232.299 45.1816H239.108V46.5223H236.48V54.3408H234.94V46.5223H232.299V45.1816Z" fill="#E98400"/>
<path d="M226.172 54.3408H224.526L227.711 45.1816H229.172L232.357 54.3408H230.725L230.101 52.4426H226.796L226.172 54.3408ZM228.441 47.4117L227.22 51.1152H229.663L228.441 47.4117Z" fill="#E98400"/>
<path d="M220.298 54.3408H217.206V45.1816H220.298C222.356 45.1816 223.736 46.2834 223.736 49.217V50.3054C223.736 53.239 222.356 54.3408 220.298 54.3408ZM220.298 53.0133C221.613 53.0133 222.197 52.1904 222.197 50.3054V49.217C222.197 47.332 221.613 46.5223 220.298 46.5223H218.745V53.0133H220.298Z" fill="#E98400"/>
<path d="M211.706 50.3453C211.706 53.2258 210.326 54.4602 208.268 54.4602C206.224 54.4602 204.844 53.2258 204.844 50.3453V49.1772C204.844 46.2967 206.224 45.0622 208.268 45.0622C210.326 45.0622 211.706 46.2967 211.706 49.1772V50.3453ZM206.384 49.1772V50.3453C206.384 52.3231 207.047 53.1196 208.268 53.1196C209.49 53.1196 210.167 52.3231 210.167 50.3453V49.1772C210.167 47.1993 209.49 46.4029 208.268 46.4029C207.047 46.4029 206.384 47.1993 206.384 49.1772Z" fill="#E98400"/>
<path d="M197.086 45.1816H203.896V46.5223H201.267V54.3408H199.727V46.5223H197.086V45.1816Z" fill="#E98400"/>
<path d="M189.455 50.9957H187.875V54.3408H186.336V45.1816H189.455C191.566 45.1816 192.827 46.1905 192.827 48.0754C192.827 49.9338 191.579 50.9957 189.455 50.9957ZM187.875 49.6683H189.296C190.703 49.6683 191.287 49.124 191.287 48.0754C191.287 47.0798 190.703 46.5223 189.296 46.5223H187.875V49.6683Z" fill="#E98400"/>
<path d="M182.513 45.1816H184.053V50.624C184.053 53.3319 182.659 54.4602 180.628 54.4602C178.597 54.4602 177.204 53.3319 177.204 50.6373V45.1816H178.743V50.6373C178.743 52.3895 179.367 53.1195 180.628 53.1195C181.889 53.1195 182.513 52.3895 182.513 50.6373V45.1816Z" fill="#E98400"/>
<path d="M165.438 45.1816H172.248V46.5223H169.619V54.3408H168.08V46.5223H165.438V45.1816Z" fill="#34545F"/>
<path d="M159.011 45.1816H164.626V46.5223H160.551V48.9382H164.228V50.2656H160.551V53.0133H164.626V54.3408H159.011V45.1816Z" fill="#34545F"/>
<path d="M155.235 45.1816H156.722V54.3408H155.355L151.625 48.1152V54.3408H150.138V45.1816H151.465L155.235 51.4868V45.1816Z" fill="#34545F"/>
<path d="M148.541 54.3408H146.842L145.076 50.624H143.297V54.3408H141.758V45.1816H144.877C146.988 45.1816 148.249 46.0976 148.249 47.9161C148.249 49.1771 147.651 49.9869 146.589 50.3718L148.541 54.3408ZM143.297 49.2966H144.771C146.072 49.2966 146.709 48.9515 146.709 47.9161C146.709 46.8807 146.072 46.5223 144.771 46.5223H143.297V49.2966Z" fill="#34545F"/>
<path d="M134.414 45.1816H140.029V46.5223H135.954V48.9382H139.631V50.2656H135.954V53.0133H140.029V54.3408H134.414V45.1816Z" fill="#34545F"/>
<path d="M126.233 45.1816H133.043V46.5223H130.414V54.3408H128.874V46.5223H126.233V45.1816Z" fill="#34545F"/>
<path d="M123.373 45.1816H124.86V54.3408H123.493L119.763 48.1152V54.3408H118.276V45.1816H119.603L123.373 51.4868V45.1816Z" fill="#34545F"/>
<path d="M115.872 45.1816V54.3408H114.332V45.1816H115.872Z" fill="#34545F"/>
<path d="M109.018 54.3408H107.319L105.554 50.624H103.775V54.3408H102.235V45.1816H105.355C107.465 45.1816 108.726 46.0976 108.726 47.9161C108.726 49.1771 108.129 49.9869 107.067 50.3718L109.018 54.3408ZM103.775 49.2966H105.248C106.549 49.2966 107.186 48.9515 107.186 47.9161C107.186 46.8807 106.549 46.5223 105.248 46.5223H103.775V49.2966Z" fill="#34545F"/>
<path d="M98.4124 45.1816H99.9522V50.624C99.9522 53.3319 98.5584 54.4602 96.5275 54.4602C94.4966 54.4602 93.1028 53.3319 93.1028 50.6373V45.1816H94.6426V50.6373C94.6426 52.3895 95.2665 53.1195 96.5275 53.1195C97.7885 53.1195 98.4124 52.3895 98.4124 50.6373V45.1816Z" fill="#34545F"/>
<path d="M91.1876 50.3453C91.1876 53.2258 89.8071 54.4602 87.7497 54.4602C85.7055 54.4602 84.325 53.2258 84.325 50.3453V49.1772C84.325 46.2967 85.7055 45.0622 87.7497 45.0622C89.8071 45.0622 91.1876 46.2967 91.1876 49.1772V50.3453ZM85.8647 49.1772V50.3453C85.8647 52.3231 86.5284 53.1196 87.7497 53.1196C88.9709 53.1196 89.6479 52.3231 89.6479 50.3453V49.1772C89.6479 47.1993 88.9709 46.4029 87.7497 46.4029C86.5284 46.4029 85.8647 47.1993 85.8647 49.1772Z" fill="#34545F"/>
<path d="M76.2578 45.1816H78.0498L79.8816 48.8453L81.7267 45.1816H83.5055L80.6515 50.5178V54.3408H79.1117V50.5178L76.2578 45.1816Z" fill="#34545F"/>
<path d="M71.5819 46.5622L70.4138 47.3984C69.9624 46.7746 69.4713 46.4029 68.4359 46.4029C67.4935 46.4029 66.936 46.8276 66.936 47.5975C66.936 48.4736 67.6262 48.8188 68.9005 49.0975C70.7456 49.4957 71.7013 50.186 71.7013 51.832C71.7013 53.1992 70.7854 54.4602 68.5819 54.4602C67.0156 54.4602 65.9138 53.9824 65.1572 52.9603L66.3652 52.124C66.9094 52.7744 67.4536 53.1196 68.5023 53.1196C69.7633 53.1196 70.1616 52.562 70.1616 51.8983C70.1616 51.1683 69.7501 50.717 68.1572 50.3718C66.3917 50.0002 65.3962 49.1506 65.3962 47.5975C65.3962 46.217 66.2988 45.0622 68.4492 45.0622C69.9093 45.0622 70.9314 45.5533 71.5819 46.5622Z" fill="#34545F"/>
<path d="M63.2441 45.1816V54.3408H61.7043V45.1816H63.2441Z" fill="#34545F"/>
<defs>
<clipPath id="clip0_5276_1338">
<rect width="254.696" height="56" fill="white"/>
</clipPath>
<clipPath id="clip1_5276_1338">
<rect width="254.696" height="56" fill="white"/>
</clipPath>
</defs>
</svg>
