<svg xmlns="http://www.w3.org/2000/svg" width="24" height="24" viewBox="0 0 24 24" fill="none">
  <path d="M13.4868 5.75483C13.1939 5.46193 12.719 5.46193 12.4261 5.75483C12.1332 6.04772 12.1332 6.52259 12.4261 6.81549L13.4868 5.75483ZM18.6695 11.9982L19.1998 12.5285C19.3405 12.3878 19.4195 12.1971 19.4195 11.9982C19.4195 11.7992 19.3405 11.6085 19.1998 11.4678L18.6695 11.9982ZM12.4261 17.1808C12.1332 17.4737 12.1332 17.9486 12.4261 18.2415C12.719 18.5344 13.1939 18.5344 13.4868 18.2415L12.4261 17.1808ZM5.35547 11.2482C4.94126 11.2482 4.60547 11.5839 4.60547 11.9982C4.60547 12.4124 4.94126 12.7482 5.35547 12.7482V11.2482ZM18.6525 12.7482C19.0667 12.7482 19.4025 12.4124 19.4025 11.9982C19.4025 11.5839 19.0667 11.2482 18.6525 11.2482V12.7482ZM12.4261 6.81549L18.1391 12.5285L19.1998 11.4678L13.4868 5.75483L12.4261 6.81549ZM18.1391 11.4678L12.4261 17.1808L13.4868 18.2415L19.1998 12.5285L18.1391 11.4678ZM5.35547 12.7482H18.6525V11.2482H5.35547V12.7482Z" fill="#34545F"/>
</svg>