<svg class="mail-icon" xmlns="http://www.w3.org/2000/svg" width="24" height="24" viewBox="0 0 24 24" fill="none">
  <g id="Icons/at">
  <path id="Vector" d="M16 8V12C16 13.473 17.194 14.667 18.667 14.667C20.14 14.667 21.334 13.473 21.334 12V12.001C21.334 6.846 17.155 2.668 12.001 2.668C6.84697 2.668 2.66797 6.847 2.66797 12.001C2.66797 17.155 6.84497 21.335 12 21.335C14.577 21.335 16.911 20.29 18.6 18.601M16 12.001C16 14.2101 14.2091 16.001 12 16.001C9.79083 16.001 7.99997 14.2101 7.99997 12.001C7.99997 9.79186 9.79083 8.001 12 8.001C14.2091 8.001 16 9.79186 16 12.001Z" stroke="#004654" stroke-width="1.5" stroke-miterlimit="10" stroke-linecap="round" stroke-linejoin="round"/>
  </g>
</svg>