<svg width="20" height="20" viewBox="0 0 20 20" fill="none" xmlns="http://www.w3.org/2000/svg">
<path d="M13.6781 4C15.6791 4 16.9298 6.16515 15.93 7.89844L11.8929 14.8965C10.8924 16.6308 8.38958 16.6308 7.38903 14.8965L3.35192 7.89844C2.35219 6.16514 3.60286 4 5.60388 4L13.6781 4ZM5.60388 5.19922C4.52649 5.19922 3.85291 6.36555 4.39099 7.29883L8.4281 14.2969C8.96685 15.2307 10.3151 15.2307 10.8539 14.2969L14.891 7.29883C15.4291 6.36556 14.7555 5.19922 13.6781 5.19922L5.60388 5.19922Z" fill="#4C4C4C"/>
<path d="M11 7L8.65816 9.34184H11L8.62793 11.7131" stroke="#4C4C4C" stroke-width="1.19318" stroke-miterlimit="10" stroke-linecap="round" stroke-linejoin="round"/>
</svg>
