<svg width="20" height="20" viewBox="0 0 20 20" fill="none" xmlns="http://www.w3.org/2000/svg">
<path fill-rule="evenodd" clip-rule="evenodd" d="M10.0014 3.95801C6.66562 3.95801 3.96143 6.66221 3.96143 9.99801C3.96143 13.3338 6.66562 16.038 10.0014 16.038C13.3372 16.038 16.0414 13.3338 16.0414 9.99801C16.0414 6.66221 13.3372 3.95801 10.0014 3.95801ZM2.71143 9.99801C2.71143 5.97186 5.97526 2.70801 10.0014 2.70801C14.0276 2.70801 17.2914 5.97186 17.2914 9.99801C17.2914 14.0242 14.0276 17.288 10.0014 17.288C5.97526 17.288 2.71143 14.0242 2.71143 9.99801ZM13.5225 7.78268C13.7666 8.02673 13.7666 8.42246 13.5226 8.66656L9.97508 12.2149C9.73104 12.459 9.33535 12.4591 9.09123 12.215L7.11374 10.2384C6.86961 9.99435 6.86953 9.59862 7.11356 9.35449C7.35758 9.11036 7.75331 9.11028 7.99744 9.35431L9.53294 10.8892L12.6386 7.78278C12.8826 7.53868 13.2784 7.53863 13.5225 7.78268Z" fill="#219653"/>
</svg>
