<svg xmlns="http://www.w3.org/2000/svg" width="24" height="24" viewBox="0 0 24 24" fill="none">
  <path fill-rule="evenodd" clip-rule="evenodd" d="M6.13759 6.11425C6.43045 5.82133 6.90533 5.82129 7.19825 6.11415L12.001 10.916L16.8037 6.11415C17.0966 5.82129 17.5715 5.82133 17.8644 6.11425C18.1572 6.40717 18.1572 6.88205 17.8643 7.17491L13.0617 11.9765L17.8643 16.7781C18.1572 17.071 18.1572 17.5459 17.8644 17.8388C17.5715 18.1317 17.0966 18.1317 16.8037 17.8389L12.001 13.0371L7.19825 17.8389C6.90533 18.1317 6.43045 18.1317 6.13759 17.8388C5.84472 17.5459 5.84477 17.071 6.13769 16.7781L10.9402 11.9765L6.13769 7.17491C5.84477 6.88205 5.84472 6.40717 6.13759 6.11425Z" fill="#34545F"/>
</svg>