<svg xmlns="http://www.w3.org/2000/svg" width="24" height="24" viewBox="0 0 24 24">
  <path fill-rule="evenodd" clip-rule="evenodd" d="M3.42692 8.13385C3.42099 8.20042 3.41797 8.26782 3.41797 8.33594V15.6659C3.41797 16.9087 4.42518 17.9159 5.66797 17.9159H18.334C19.5769 17.9159 20.5842 16.9085 20.585 15.6664V8.33594C20.585 8.26755 20.5819 8.19988 20.576 8.13305L12.489 15.0634C12.2082 15.3041 11.7938 15.3041 11.513 15.0634L3.42692 8.13385ZM4.09287 6.7291L12.001 13.5062L19.9096 6.72865C19.5038 6.33105 18.9481 6.08594 18.335 6.08594H5.66797C5.05465 6.08594 4.4987 6.33124 4.09287 6.7291ZM1.91797 8.33594C1.91797 6.26472 3.59676 4.58594 5.66797 4.58594H18.335C20.4062 4.58594 22.085 6.26472 22.085 8.33594V15.6669C22.0837 17.7368 20.4051 19.4159 18.334 19.4159H5.66797C3.59676 19.4159 1.91797 17.7371 1.91797 15.6659V8.33594Z" fill="#191919"></path>
</svg>