<svg xmlns="http://www.w3.org/2000/svg" width="24" height="24" viewBox="0 0 24 24" fill="none">
  <path fill-rule="evenodd" clip-rule="evenodd" d="M11.998 4.75C7.99503 4.75 4.75 7.99504 4.75 11.998C4.75 16.001 7.99503 19.246 11.998 19.246C16.001 19.246 19.246 16.001 19.246 11.998C19.246 7.99504 16.001 4.75 11.998 4.75ZM3.25 11.998C3.25 7.16662 7.1666 3.25 11.998 3.25C16.8294 3.25 20.746 7.16662 20.746 11.998C20.746 16.8294 16.8294 20.746 11.998 20.746C7.16661 20.746 3.25 16.8294 3.25 11.998Z" fill="#E03030"/>
  <path fill-rule="evenodd" clip-rule="evenodd" d="M14.6393 9.41962C14.9322 9.71251 14.9322 10.1874 14.6393 10.4803L13.0599 12.0597L14.6393 13.6397C14.9322 13.9326 14.9321 14.4075 14.6392 14.7003C14.3462 14.9932 13.8714 14.9931 13.5785 14.7002L11.9992 13.1203L10.42 14.6996C10.1271 14.9925 9.65221 14.9925 9.35932 14.6996C9.06643 14.4067 9.06643 13.9318 9.35932 13.6389L10.9387 12.0595L9.35994 10.4802C9.0671 10.1873 9.06717 9.71239 9.36012 9.41954C9.65306 9.1267 10.1279 9.12678 10.4208 9.41972L11.9994 10.9988L13.5786 9.41962C13.8715 9.12673 14.3464 9.12673 14.6393 9.41962Z" fill="#E03030"/>
</svg>