<svg width="20" height="20" viewBox="0 0 20 20" fill="none" xmlns="http://www.w3.org/2000/svg">
<path d="M8.94503 3.65502C9.59114 3.25386 10.4089 3.25386 11.055 3.65502L12.975 4.84715L14.9674 5.91388C15.6379 6.27285 16.0468 6.98101 16.0224 7.74114L15.95 10L16.0224 12.2589C16.0468 13.019 15.6379 13.7272 14.9674 14.0861L12.975 15.1529L11.055 16.345C10.4089 16.7461 9.59114 16.7461 8.94503 16.345L7.025 15.1529L5.03257 14.0861C4.3621 13.7272 3.95324 13.019 3.9776 12.2589L4.05 10L3.9776 7.74114C3.95324 6.98101 4.3621 6.27284 5.03257 5.91388L7.025 4.84715L8.94503 3.65502Z" stroke="#E03030" stroke-width="1.2"/>
<path fill-rule="evenodd" clip-rule="evenodd" d="M12.1992 7.85005C12.4433 8.09413 12.4433 8.48986 12.1992 8.73393L10.8831 10.0501L12.1993 11.3668C12.4433 11.6109 12.4433 12.0066 12.1991 12.2507C11.955 12.4947 11.5593 12.4946 11.3153 12.2505L9.99917 10.934L8.68315 12.25C8.43907 12.4941 8.04335 12.4941 7.79927 12.25C7.55519 12.0059 7.55519 11.6102 7.79927 11.3661L9.11543 10.05L7.79979 8.73387C7.55575 8.48975 7.55582 8.09402 7.79993 7.84999C8.04405 7.60595 8.43978 7.60601 8.68382 7.85013L9.99932 9.16607L11.3153 7.85005C11.5594 7.60597 11.9551 7.60597 12.1992 7.85005Z" fill="#E03030"/>
</svg>
