<svg xmlns="http://www.w3.org/2000/svg" width="18" height="18" viewBox="0 0 18 18" fill="none">
  <path fill-rule="evenodd" clip-rule="evenodd" d="M9.00142 3.5625C5.99921 3.5625 3.56543 5.99628 3.56543 8.9985C3.56543 12.0007 5.9992 14.4345 9.00142 14.4345C12.0037 14.4345 14.4374 12.0007 14.4374 8.9985C14.4374 5.99628 12.0037 3.5625 9.00142 3.5625ZM2.44043 8.9985C2.44043 5.37496 5.37788 2.4375 9.00142 2.4375C12.625 2.4375 15.5624 5.37496 15.5624 8.9985C15.5624 12.6221 12.625 15.5595 9.00142 15.5595C5.37788 15.5595 2.44043 12.6221 2.44043 8.9985ZM9.29507 6.12082C9.56004 6.283 9.64337 6.62927 9.48119 6.89423L9.47984 6.89644C9.31766 7.16141 8.97139 7.24474 8.70642 7.08256C8.44146 6.92038 8.35813 6.57411 8.52031 6.30914L8.52165 6.30694C8.68383 6.04197 9.0301 5.95864 9.29507 6.12082ZM7.23052 8.8821C7.23052 8.57144 7.48236 8.3196 7.79302 8.3196H9.00127C9.31193 8.3196 9.56377 8.57144 9.56377 8.8821V11.3998C9.56377 11.7105 9.31193 11.9623 9.00127 11.9623C8.69061 11.9623 8.43877 11.7105 8.43877 11.3998V9.4446H7.79302C7.48236 9.4446 7.23052 9.19276 7.23052 8.8821Z" fill="#34545F"/>
</svg>