<svg width="20" height="20" viewBox="0 0 20 20" fill="none" xmlns="http://www.w3.org/2000/svg">
<path d="M9.62509 7.59766C9.97026 7.59766 10.2501 7.87748 10.2501 8.22266V11.021C10.2501 11.3662 9.97026 11.646 9.62509 11.646C9.27991 11.646 9.00009 11.3662 9.00009 11.021V8.22266C9.00009 7.87748 9.27991 7.59766 9.62509 7.59766Z" fill="#BC6D07"/>
<path d="M9.95612 13.057C10.2494 13.239 10.3396 13.6243 10.1577 13.9176L10.1562 13.92C9.97415 14.2133 9.58885 14.3036 9.29555 14.1216C9.00225 13.9396 8.91202 13.5543 9.09402 13.261L9.09552 13.2585C9.27752 12.9652 9.66282 12.875 9.95612 13.057Z" fill="#BC6D07"/>
<path d="M5.60364 16.1973C3.60263 16.1973 2.35195 14.0321 3.35169 12.2988L7.3888 5.30078C8.38936 3.56649 10.8922 3.56649 11.8927 5.30078L15.9298 12.2988C16.9296 14.0321 15.6789 16.1973 13.6779 16.1973L5.60364 16.1973ZM13.6779 14.998C14.7552 14.998 15.4288 13.8317 14.8908 12.8984L10.8536 5.90039C10.3149 4.96654 8.96662 4.96654 8.42786 5.90039L4.39075 12.8984C3.85268 13.8317 4.52626 14.998 5.60364 14.998L13.6779 14.998Z" fill="#BC6D07"/>
</svg>
