<svg xmlns="http://www.w3.org/2000/svg" width="24" height="24" viewBox="0 0 20 20" fill="none">
  <path d="M15.6913 10.0001C15.6913 9.57258 15.6405 9.15841 15.5513 8.75841L16.4913 7.85006C16.9605 7.39589 17.0613 6.68089 16.7347 6.11589C16.408 5.55006 15.7388 5.28006 15.1105 5.45922L13.8513 5.81839C13.2405 5.25589 12.5105 4.82089 11.6988 4.56756L11.3822 3.30089C11.2238 2.66756 10.6547 2.22339 10.0013 2.22339C9.348 2.22339 8.77883 2.66756 8.6205 3.30172L8.30381 4.56756C7.49381 4.82006 6.76631 5.25339 6.15631 5.81422L4.88797 5.45172C4.26047 5.27172 3.59131 5.54255 3.26464 6.10839C2.93797 6.67422 3.03797 7.38922 3.50797 7.84256L4.45214 8.75508C4.36214 9.15675 4.31131 9.57175 4.31131 10.0001C4.31131 10.4251 4.36131 10.8376 4.44964 11.2359L3.50381 12.1509C3.03464 12.6051 2.93381 13.3201 3.26047 13.8851C3.58714 14.4509 4.25631 14.7209 4.88464 14.5417L6.14964 14.1801C6.75881 14.7417 7.48631 15.1759 8.29547 15.4301L8.613 16.6992C8.77133 17.3326 9.3405 17.7767 9.99383 17.7767C10.6472 17.7767 11.2163 17.3326 11.3747 16.6984L11.6905 15.4351C12.503 15.1826 13.2338 14.7484 13.8455 14.1876L15.1072 14.5484C15.7347 14.7276 16.4047 14.4576 16.7305 13.8917C17.0572 13.3259 16.9563 12.6109 16.4872 12.1576L15.5497 11.2509C15.6397 10.8476 15.6913 10.4301 15.6913 10.0001ZM10.0013 12.2217C8.77467 12.2217 7.77964 11.2267 7.77964 10.0001C7.77964 8.77341 8.77467 7.77839 10.0013 7.77839C11.228 7.77839 12.223 8.77341 12.223 10.0001C12.223 11.2267 11.228 12.2217 10.0013 12.2217Z" stroke="white" stroke-width="1.2" stroke-miterlimit="10" stroke-linecap="round" stroke-linejoin="round"></path>
</svg>