<svg xmlns="http://www.w3.org/2000/svg" width="24" height="24" viewBox="0 0 24 24">
  <path fill-rule="evenodd" clip-rule="evenodd" d="M4.79224 11.2519H8.01649C8.08887 9.26307 8.44705 7.44913 9.00964 6.0642C9.12809 5.77263 9.25767 5.49491 9.39855 5.23549C6.90474 6.19559 5.07569 8.49467 4.79224 11.2519ZM12.0019 3.25391C7.17051 3.25391 3.25391 7.17052 3.25391 12.0019C3.25391 16.8333 7.17051 20.7499 12.0019 20.7499C16.8333 20.7499 20.7499 16.8333 20.7499 12.0019C20.7499 7.17052 16.8333 3.25391 12.0019 3.25391ZM14.6052 5.23549C17.0991 6.19559 18.9281 8.49467 19.2116 11.2519H15.9873C15.9149 9.26307 15.5567 7.44913 14.9942 6.0642C14.8757 5.77263 14.7461 5.49491 14.6052 5.23549ZM14.4862 11.2519C14.4144 9.42266 14.0833 7.80748 13.6044 6.62873C13.332 5.95809 13.0265 5.46521 12.7256 5.15195C12.4267 4.84072 12.1822 4.75391 12.0019 4.75391C11.8216 4.75391 11.5771 4.84072 11.2782 5.15195C10.9773 5.46521 10.6718 5.95809 10.3994 6.62873C9.92052 7.80748 9.5894 9.42266 9.51755 11.2519H14.4862ZM9.51755 12.7519H14.4862C14.4144 14.5812 14.0833 16.1963 13.6044 17.3751C13.332 18.0457 13.0265 18.5386 12.7256 18.8519C12.4267 19.1631 12.1822 19.2499 12.0019 19.2499C11.8216 19.2499 11.5771 19.1631 11.2782 18.8519C10.9773 18.5386 10.6718 18.0457 10.3994 17.3751C9.92052 16.1963 9.5894 14.5812 9.51755 12.7519ZM8.01649 12.7519H4.79224C5.07569 15.5091 6.90473 17.8082 9.39855 18.7683C9.25767 18.5089 9.12809 18.2312 9.00964 17.9396C8.44705 16.5547 8.08887 14.7407 8.01649 12.7519ZM14.6052 18.7683C14.7461 18.5089 14.8757 18.2312 14.9942 17.9396C15.5567 16.5547 15.9149 14.7407 15.9873 12.7519H19.2116C18.9281 15.5092 17.0991 17.8082 14.6052 18.7683Z" fill="#191919"></path>
</svg>