<svg width="20" height="20" viewBox="0 0 20 20" fill="none" xmlns="http://www.w3.org/2000/svg">
<path d="M15 15.7998V17H5V15.7998H15ZM15.7998 15V5C15.7998 4.55817 15.4418 4.2002 15 4.2002H5C4.55817 4.2002 4.2002 4.55817 4.2002 5V15C4.2002 15.4418 4.55817 15.7998 5 15.7998V17L4.7959 16.9893C3.85435 16.8938 3.1062 16.1457 3.01074 15.2041L3 15V5C3 3.89543 3.89543 3 5 3H15C16.1046 3 17 3.89543 17 5V15C17 16.0357 16.2128 16.887 15.2041 16.9893L15 17V15.7998C15.4418 15.7998 15.7998 15.4418 15.7998 15Z" fill="#23CDE5"/>
<path d="M10.7939 7.09201C11.0884 7.27221 11.1809 7.65696 11.0007 7.95137L10.9992 7.95382C10.819 8.24823 10.4343 8.34081 10.1399 8.16061C9.84548 7.98042 9.75289 7.59567 9.93309 7.30126L9.93459 7.29881C10.1148 7.0044 10.4995 6.91182 10.7939 7.09201Z" fill="#23CDE5"/>
<path d="M8.5 10.1601C8.5 9.81493 8.77982 9.53511 9.125 9.53511H10.4675C10.8127 9.53511 11.0925 9.81493 11.0925 10.1601V12.9576C11.0925 13.3028 10.8127 13.5826 10.4675 13.5826C10.1223 13.5826 9.8425 13.3028 9.8425 12.9576V10.7851H9.125C8.77982 10.7851 8.5 10.5053 8.5 10.1601Z" fill="#23CDE5"/>
</svg>
