<svg xmlns="http://www.w3.org/2000/svg" width="24" height="24" viewBox="0 0 32 32" fill="none">
  <circle cx="16" cy="16" r="16" fill="#191919"></circle>
  <path d="M12.3645 23H9.28037V13.0156H12.3645V23ZM10.8224 11.6094C9.79439 11.6094 9 10.8125 9 9.82813C9 8.84375 9.79439 8 10.8224 8C11.8037 8 12.5981 8.84375 12.5981 9.82813C12.5981 10.8125 11.8037 11.6094 10.8224 11.6094ZM24 23H20.8692V18.125C20.8692 17 20.8692 15.5 19.2804 15.5C17.6449 15.5 17.4112 16.7656 17.4112 18.0781V23H14.3271V13.0156H17.271V14.375H17.3178C17.7383 13.5781 18.7664 12.7344 20.2617 12.7344C23.3925 12.7344 24 14.8438 24 17.5156V23Z" fill="#EEF6F9"></path>
</svg>