<svg xmlns="http://www.w3.org/2000/svg" width="24" height="24" viewBox="0 0 32 32" fill="none">
  <circle cx="16" cy="16" r="16" fill="#191919"></circle>
  <path d="M25.3324 12.7951C25.3324 8.74532 22.4879 7.55903 22.4879 7.55903C21.0541 6.94489 18.5918 6.68635 16.0334 6.66675H15.9703C13.4119 6.68635 10.9516 6.94489 9.51682 7.55903C9.51682 7.55903 6.67227 8.74626 6.67227 12.7951C6.67227 13.722 6.65326 14.8308 6.68428 16.0068C6.78733 19.967 7.4627 23.8703 11.3878 24.8391C13.1978 25.2862 14.7517 25.3795 16.0024 25.3151C18.2716 25.1975 19.5453 24.56 19.5453 24.56L19.4702 23.0237C19.4702 23.0237 17.8484 23.5007 16.0274 23.4428C14.2224 23.3849 12.3183 23.2617 12.0262 21.1944C11.9986 21.0022 11.9852 20.8086 11.9862 20.6148C11.9862 20.6148 13.7571 21.0189 16.0024 21.115C17.3751 21.1738 18.6618 21.0404 19.9695 20.8948C22.4769 20.6157 24.6601 19.1746 24.9342 17.8576C25.3685 15.7828 25.3324 12.7951 25.3324 12.7951ZM21.9776 18.0126H19.8955V13.2534C19.8955 12.2501 19.4432 11.7414 18.5377 11.7414C17.5372 11.7414 17.0359 12.3453 17.0359 13.5399V16.1449H14.9658V13.5399C14.9658 12.3453 14.4645 11.7414 13.463 11.7414C12.5575 11.7414 12.1052 12.251 12.1052 13.2534V18.0126H10.0231V13.1097C10.0231 12.1073 10.2962 11.3111 10.8465 10.7222C11.4129 10.1332 12.1543 9.83081 13.0758 9.83081C14.1413 9.83081 14.9488 10.2125 15.4821 10.977L16.0004 11.788L16.5196 10.977C17.0529 10.2125 17.8604 9.83081 18.9259 9.83081C19.8465 9.83081 20.5889 10.1332 21.1552 10.7222C21.7045 11.3111 21.9776 12.1073 21.9776 13.1097V18.0126Z" fill="#EEF6F9"></path>
</svg>