<svg xmlns="http://www.w3.org/2000/svg" width="24" height="24" viewBox="0 0 32 32" fill="none">
  <path fill-rule="evenodd" clip-rule="evenodd" d="M14.0103 5.90625C9.53453 5.90625 5.90625 9.53454 5.90625 14.0103C5.90625 18.486 9.53453 22.1143 14.0103 22.1143C16.2407 22.1143 18.2606 21.2132 19.726 19.7553C19.7308 19.7503 19.7356 19.7453 19.7406 19.7404C19.7454 19.7355 19.7503 19.7307 19.7553 19.726C21.2132 18.2606 22.1143 16.2407 22.1143 14.0103C22.1143 9.53453 18.486 5.90625 14.0103 5.90625ZM21.827 20.413C23.2564 18.67 24.1143 16.4403 24.1143 14.0103C24.1143 8.42997 19.5905 3.90625 14.0103 3.90625C8.42997 3.90625 3.90625 8.42997 3.90625 14.0103C3.90625 19.5905 8.42997 24.1143 14.0103 24.1143C16.4402 24.1143 18.6698 23.2565 20.4128 21.8272L25.9604 27.376C26.3509 27.7665 26.9841 27.7666 27.3746 27.3761C27.7652 26.9856 27.7653 26.3525 27.3748 25.9619L21.827 20.413Z" fill="#191919"></path>
</svg>