<svg width="50" height="50" viewBox="0 0 50 50" xmlns="http://www.w3.org/2000/svg"><title>icon-check</title><g fill="none" fill-rule="evenodd"><path d="M43.211 9.992L26.714 1.179a1.515 1.515 0 0 0-1.434 0L8.783 9.992A1.465 1.465 0 0 0 8 11.282v11.75c0 6.462 1.7 11.685 5.204 15.97 2.736 3.35 6.476 6.075 12.124 8.842a1.531 1.531 0 0 0 1.344 0c5.648-2.767 9.388-5.493 12.124-8.842 3.5-4.285 5.204-9.511 5.204-15.97v-11.75c0-.538-.3-1.032-.783-1.29h-.006z" fill="#009F33"/><path d="M22.5 28.615L37.115 14 40 16.885 25.385 31.5l.057.058-2.884 2.884L12 23.885 14.885 21l7.615 7.615z" fill="#FFF"/></g></svg>