<svg height="21" viewBox="0 0 21 21" width="21" xmlns="http://www.w3.org/2000/svg"><g fill="none" fill-rule="evenodd"><circle cx="10.5" cy="10.5" fill="#fdfdfd" r="9.5"/><g fill="#000" transform="translate(2 7)"><path d="m7.009 4.109c-.11074177-.13050438-.15830586-.3031986-.13-.472.249-1.726 1.87-3.136 3.615-3.142l3.521-.012c.845-.003 1.593.32 2.105.909.513.59.728 1.375.608 2.211-.25 1.727-1.87 3.136-3.615 3.143l-1.61.006c-.1709725.00635617-.3356163-.06510279-.4477428-.19432995-.1121264-.12922717-.1596568-.30230183-.1292572-.47067005.0641832-.37830463.3864551-.65872297.77-.67l1.61-.006c1-.003 1.93-.812 2.074-1.803.069-.48-.055-.93-.35-1.269-.293-.338-.722-.523-1.207-.522l-3.521.012c-1.001.004-1.932.813-2.074 1.804-.06418325.37830463-.38645507.65872297-.77.67-.17142749.00459679-.33612909-.0667739-.45-.195z"/><path d="m1.619 5.869c-.513-.59-.728-1.375-.608-2.212.249-1.726 1.87-3.136 3.615-3.142l1.61-.006c.1709725-.00635617.33561635.06510279.44774277.19432995.11212643.12922717.15965686.30230183.12925723.47067005-.06418325.37830463-.38645507.65872297-.77.67l-1.609.006c-1.001.003-1.932.812-2.074 1.803-.07.48.054.93.348 1.269.294.338.724.523 1.208.522l3.521-.013c1.001-.003 1.932-.812 2.075-1.803.06418325-.37830463.38645507-.65872297.77-.67.1713534-.00673196.3364906.06472336.4488906.1942361.1123999.12951274.1598965.30306461.1291094.4717639-.249 1.726-1.87 3.136-3.615 3.142l-3.521.012c-.845.003-1.593-.32-2.105-.91z"/></g></g></svg>