<svg height="40" viewBox="0 0 40 40" width="40" xmlns="http://www.w3.org/2000/svg"><g fill="none" fill-rule="evenodd"><path d="m20 0c-11.04625 0-20 8.95375-20 20 0 11.045 8.95375 20 20 20s20-8.955 20-20c0-11.04625-8.95375-20-20-20z" fill="#333"/><path d="m22.7815632 11.2127266c-1.9866442.7151643-3.2423533 2.5580404-3.0999146 4.5750756l.0474795.7781581-.7946576-.0951082c-2.892504-.3656108-5.4201652-1.6044879-7.5667405-3.6857521l-1.0495478-1.0326034-.2686343.7621009c-.57225351 1.6995961-.20616121 3.4955356.9858253 4.7035334.635976.6669927.4922879.7621009-.60349.3656108-.3810859-.1272227-.71594161-.2223309-.74717816-.1741592-.11120209.1111655.26988374 1.5563162.57225346 2.1294359.4135719.7954505 1.2557091 1.5723734 2.1778119 2.0343276l.7796641.3656108-.9233522.0135869c-.8896168 0-.9221028.0160572-.8258942.3507887.3173632 1.0326035 1.5730723 2.1294359 2.9724695 2.6062121l.9858253.3334963-.8583802.5088907c-1.2719521.7324568-2.7663084 1.1450041-4.2606646 1.1746482-.71594161.0160573-1.3044381.079051-1.3044381.1272227 0 .158102 1.9404141 1.0474255 3.0674286 1.3982143 3.3860414 1.0326034 7.4080588.5867065 10.4280079-1.1758834 2.1465753-1.2549344 4.2919011-3.749981 5.2939695-6.1659766.5410169-1.2858137 1.0807844-3.6375804 1.0807844-4.7652921 0-.7312216.0474795-.8263298.9370963-1.6995961.5247739-.5088907 1.0170619-1.0647179 1.1132704-1.2228199.1599311-.3026171.1424387-.3026171-.6672126-.0321145-1.3506681.4767763-1.5418358.4137825-.8733737-.3013818.4922879-.5088907 1.0807844-1.4303288 1.0807844-1.6995962 0-.0469365-.2386472.0321145-.5085309.1741592-.2861268.1593372-.9221028.3977253-1.3993972.53977l-.8583802.2705026-.7784147-.5261831c-.4298149-.2853246-1.0320554-.6039989-1.3506682-.6991071-.8121501-.2223309-2.0516162-.1902165-2.7838008.0642289z" fill="#fff"/></g></svg>