<svg height="21" viewBox="0 0 21 21" width="21" xmlns="http://www.w3.org/2000/svg"><g fill="none" fill-rule="evenodd"><circle cx="10.5" cy="10.5" fill="#fdfdfd" r="9.5"/><path d="m12.9816786 16.9599474c-2.8059573 1.1423572-6.08635711.4225125-8.14774231-1.8911404-2.65950257-2.9849665-2.39523572-7.57541716.58949309-10.23471904.36697343-.32696189.76568856-.61466951 1.18918262-.86023904 2.95364237-1.71270619 6.7474459-1.12777654 9.0451549 1.4511209 1.0260499 1.15161582 1.6551211 2.59656816 1.8027258 4.12347376l1.7601369.00425515-2.7527596 3.44730127-2.6965979-3.44748408 1.8210918-.00377435c-.1396713-1.06990402-.5980327-2.07776591-1.3210897-2.88930914-1.9848146-2.2277118-5.38500678-2.42399273-7.61252753-.43934-2.22757287 1.98469925-2.42357839 5.38573967-.43880945 7.61340017 1.48778924 1.6698615 3.81255008 2.2271338 5.85257538 1.489956z" fill="#000" fill-rule="nonzero"/></g></svg>