<svg height="40" viewBox="0 0 40 40" width="40" xmlns="http://www.w3.org/2000/svg"><g fill="none" fill-rule="evenodd"><circle cx="20" cy="20" fill="#082070" r="20"/><path d="m16.6855051 19.2551146h-3.4426975c3.3566301-2.7197311 5.1640463-4.8886305 6.9714625-7.9182044h4.7078889l-6.9714625 14.3732623c-.9295283 1.9365174 1.7213488 3.1672817 4.7337091 1.9365174l-1.2307644 4.2086977c-1.6869218 1.1360902-2.4701354 1.1360902-3.4426975 1.1360902-2.6680906 0-7.1435974-2.823012-4.6476417-7.4878672zm11.3609019-12.65191349c0 1.31683181-1.4115059 2.3926748-3.1500682 2.3926748-1.7213488 0-3.1500683-1.06723624-3.1500683-2.3926748 0-1.32543855 1.411506-2.39267479 3.1500683-2.39267479 1.7213488 0 3.1500682 1.07584298 3.1500682 2.39267479z" fill="#fff" fill-rule="nonzero"/></g></svg>