<svg width="16" height="16" viewBox="0 0 16 16" xmlns="http://www.w3.org/2000/svg"><title>li-shield-error</title><g fill="none" fill-rule="evenodd"><path d="M13.998 3.06L8.498.062a.497.497 0 0 0-.478 0l-5.499 3a.5.5 0 0 0-.26.439v3.999c0 2.2.566 3.977 1.734 5.436.912 1.14 2.159 2.068 4.041 3.01a.502.502 0 0 0 .448 0c1.883-.942 3.13-1.87 4.042-3.01 1.167-1.459 1.735-3.237 1.735-5.436v-4A.5.5 0 0 0 14 3.062h-.002z" fill="#A61A00"/><path d="M7.257 7.651l-2.475 2.475 1.003 1.003L8.26 8.654l2.475 2.475 1.003-1.003L9.263 7.65l2.475-2.474-1.003-1.004L8.26 6.648 5.785 4.173 4.782 5.177 7.257 7.65z" fill="#FFF"/></g></svg>