<svg width="16" height="16" viewBox="0 0 16 16" xmlns="http://www.w3.org/2000/svg"><title>li-shield-warning</title><g fill="none" fill-rule="evenodd"><path d="M13.997 3.06L8.498.062a.497.497 0 0 0-.478 0l-5.499 3a.5.5 0 0 0-.261.439v3.999c0 2.2.567 3.977 1.735 5.436.912 1.14 2.158 2.068 4.041 3.01a.502.502 0 0 0 .448 0c1.883-.942 3.13-1.87 4.042-3.01 1.166-1.459 1.734-3.237 1.734-5.436v-4a.5.5 0 0 0-.26-.438h-.003z" fill="#A61A00"/><path d="M14.094 4.157v-.706a.493.493 0 0 0-.257-.433h-.002L8.412.06a.49.49 0 0 0-.472 0L2.517 3.018a.497.497 0 0 0-.082.056L2.26 4.796v2.6c0 1.741.36 3.215 1.1 4.473l10.734-7.712z" fill="#009F33"/><circle fill="#FFF" cx="8.5" cy="8.5" r="2.5"/></g></svg>