<svg width="16" height="16" viewBox="0 0 16 16" xmlns="http://www.w3.org/2000/svg"><title>li-shield-ok</title><g fill="none" fill-rule="evenodd"><path d="M13.575 3.018L8.152.06a.49.49 0 0 0-.472 0L2.257 3.018A.493.493 0 0 0 2 3.451v3.944c0 2.17.56 3.923 1.71 5.361.9 1.124 2.13 2.04 3.986 2.968a.495.495 0 0 0 .442 0c1.857-.929 3.086-1.844 3.985-2.968 1.151-1.438 1.711-3.193 1.711-5.36V3.45a.493.493 0 0 0-.257-.433h-.002z" fill="#009F33"/><path d="M6.833 9.538l4.872-4.871.962.961L7.795 10.5l.02.02-.962.96-3.52-3.518L4.295 7l2.538 2.538z" fill="#FFF"/></g></svg>