<svg width="762" height="64" viewBox="0 0 762 64" xmlns="http://www.w3.org/2000/svg" xmlns:xlink="http://www.w3.org/1999/xlink"><title>logo-internetnlnl-tablet-en</title><defs><circle id="a" cx="32" cy="32" r="32"/><path id="c" d="M0 0h35.344v33.473H0z"/></defs><g fill="none" fill-rule="evenodd"><mask id="b" fill="#fff"><use xlink:href="#a"/></mask><use fill="#00BFD6" xlink:href="#a"/><g mask="url(#b)"><g transform="rotate(20 33.491 52.956)"><mask id="d" fill="#fff"><use xlink:href="#c"/></mask><g mask="url(#d)" fill-rule="nonzero" fill="#FFF"><path d="M35.344 39.392c3.345 0 6.021-2.636 6.021-5.844s-2.676-5.844-6.021-5.844c-3.345 0-6.021 2.636-6.021 5.844s2.676 5.844 6.02 5.844zm0 5.76c-6.507 0-11.781-5.195-11.781-11.604 0-6.409 5.274-11.604 11.78-11.604 6.507 0 11.782 5.195 11.782 11.604 0 6.409-5.275 11.604-11.781 11.604z"/><path d="M35.344 50.03c9.9 0 17.802-7.485 17.802-16.557 0-9.07-7.902-16.555-17.802-16.555-9.9 0-17.803 7.484-17.803 16.555 0 9.072 7.903 16.556 17.803 16.556zm0 5.76c-13.013 0-23.563-9.992-23.563-22.317 0-12.324 10.55-22.315 23.563-22.315 13.013 0 23.562 9.99 23.562 22.315 0 12.325-10.549 22.316-23.562 22.316z"/><path d="M35.344 61.187c16.407 0 29.584-12.48 29.584-27.714C64.928 18.24 51.75 5.76 35.344 5.76S5.76 18.24 5.76 33.473c0 15.234 13.177 27.714 29.584 27.714zm0 5.76C15.824 66.947 0 51.96 0 33.473 0 14.986 15.824 0 35.344 0c19.52 0 35.344 14.986 35.344 33.473S54.864 66.947 35.344 66.947z"/></g></g><path d="M34.903 46.974a12.467 12.467 0 0 0 6.857 2.045c6.98 0 12.64-5.73 12.64-12.8s-5.66-12.8-12.64-12.8-12.64 5.73-12.64 12.8c0 2.41.658 4.665 1.802 6.59l-8.139 8.139a2.88 2.88 0 1 0 4.073 4.073l8.047-8.047z" fill="#FFF"/><path d="M41.92 39.617c1.762 0 3.212-1.468 3.212-3.305 0-1.837-1.45-3.305-3.212-3.305-1.762 0-3.212 1.468-3.212 3.305 0 1.837 1.45 3.305 3.212 3.305zm0 4.148c-4.065 0-7.36-3.337-7.36-7.453s3.295-7.453 7.36-7.453 7.36 3.337 7.36 7.453-3.295 7.453-7.36 7.453z" fill="#FFAC40" fill-rule="nonzero"/></g><path d="M84.896 54.568V9H76v45.568h8.896zm36.496 0V33.256c0-3.648-.704-6.784-3.392-9.472-1.856-1.856-4.544-2.944-7.872-2.944-3.072 0-6.144 1.152-8.32 3.456v-3.072H93.68v33.344H102v-20.16c0-4.544 2.944-6.08 5.568-6.08 2.624 0 5.504 1.536 5.504 6.08v20.16h8.32zm22.736 0v-7.04h-3.008c-1.984 0-2.88-1.088-2.88-3.008v-16h5.888v-6.336h-5.888v-9.856h-8.32v9.856h-3.52v6.336h3.52v16.512c0 4.736 2.88 9.536 9.664 9.536h4.544zm33.424-14.08v-3.52c0-9.472-5.248-16.128-14.528-16.128-8.64 0-14.528 6.144-14.528 17.024 0 13.504 7.552 17.088 15.424 17.088 6.016 0 9.28-1.792 12.672-5.248l-5.056-4.928c-2.112 2.048-3.904 3.136-7.552 3.136-4.736 0-7.296-3.072-7.296-7.424h20.864zm-8.192-5.696h-12.672c.064-1.472.192-2.368.768-3.584.896-1.984 2.752-3.456 5.568-3.456s4.672 1.472 5.568 3.456c.576 1.216.704 2.112.768 3.584zm39.056-10.816c-2.304-2.304-4.608-3.136-7.872-3.136-3.584 0-6.784 1.664-8.384 3.584v-3.2h-8.128v33.344h8.32V34.472c0-4.224 2.816-6.144 5.376-6.144 2.048 0 3.136.704 4.416 1.984l6.272-6.336zm31.248 30.592V33.256c0-3.648-.704-6.784-3.392-9.472-1.856-1.856-4.544-2.944-7.872-2.944-3.072 0-6.144 1.152-8.32 3.456v-3.072h-8.128v33.344h8.32v-20.16c0-4.544 2.944-6.08 5.568-6.08 2.624 0 5.504 1.536 5.504 6.08v20.16h8.32zm35.152-14.08v-3.52c0-9.472-5.248-16.128-14.528-16.128-8.64 0-14.528 6.144-14.528 17.024 0 13.504 7.552 17.088 15.424 17.088 6.016 0 9.28-1.792 12.672-5.248l-5.056-4.928c-2.112 2.048-3.904 3.136-7.552 3.136-4.736 0-7.296-3.072-7.296-7.424h20.864zm-8.192-5.696h-12.672c.064-1.472.192-2.368.768-3.584.896-1.984 2.752-3.456 5.568-3.456s4.672 1.472 5.568 3.456c.576 1.216.704 2.112.768 3.584zm29.648 19.776v-7.04h-3.008c-1.984 0-2.88-1.088-2.88-3.008v-16h5.888v-6.336h-5.888v-9.856h-8.32v9.856h-3.52v6.336h3.52v16.512c0 4.736 2.88 9.536 9.664 9.536h4.544zm15.568 0v-9.472h-9.536v9.472h9.536zm35.536 0V33.256c0-3.648-.704-6.784-3.392-9.472-1.856-1.856-4.544-2.944-7.872-2.944-3.072 0-6.144 1.152-8.32 3.456v-3.072h-8.128v33.344h8.32v-20.16c0-4.544 2.944-6.08 5.568-6.08 2.624 0 5.504 1.536 5.504 6.08v20.16h8.32zm21.904 0v-7.04h-3.2c-2.112 0-2.944-1.024-2.944-3.008V9h-8.32v36.032c0 4.736 2.88 9.536 9.728 9.536h4.736z" fill="#00BFD6"/><g><path d="M399.236 41.6V24.512h-1.798V41.6h1.798zm15.029-4.704c0-1.416-.521-2.568-1.42-3.36-.758-.696-1.491-.984-3.053-1.224L407.827 32c-.875-.144-1.68-.432-2.2-.888-.521-.456-.758-1.152-.758-1.992 0-1.92 1.302-3.192 3.574-3.192 1.751 0 2.91.504 3.928 1.488l1.16-1.176c-1.444-1.296-2.864-1.872-5.017-1.872-3.337 0-5.396 1.896-5.396 4.8 0 1.392.45 2.448 1.301 3.216.758.672 1.752 1.08 3.077 1.296l1.964.288c1.207.192 1.68.36 2.201.84.568.504.829 1.224.829 2.136 0 2.016-1.515 3.168-4 3.168-1.893 0-3.195-.432-4.591-1.848l-1.207 1.224c1.562 1.608 3.242 2.256 5.75 2.256 3.527 0 5.823-1.848 5.823-4.848zm19.193-12.384h-1.94l-3.929 8.184-3.976-8.184h-1.94l5.017 10.032V41.6h1.798v-7.056l4.97-10.032zm13.774 8.544c0 3.912-.118 5.4-1.704 7.008-1.041 1.056-2.437 1.68-4.189 1.68-1.751 0-3.171-.624-4.212-1.68-1.586-1.608-1.68-3.096-1.68-7.008s.094-5.4 1.68-7.008c1.041-1.056 2.461-1.68 4.212-1.68 1.752 0 3.148.624 4.19 1.68 1.585 1.608 1.703 3.096 1.703 7.008zm-1.798 0c0-3.504-.119-4.752-1.184-5.856-.78-.792-1.775-1.2-2.91-1.2-1.137 0-2.13.408-2.912 1.2-1.065 1.104-1.183 2.352-1.183 5.856s.118 4.752 1.183 5.856c.781.792 1.775 1.2 2.911 1.2 1.136 0 2.13-.408 2.911-1.2 1.065-1.104 1.184-2.352 1.184-5.856zm17.56 2.904V24.512h-1.798v11.304c0 2.592-1.633 4.296-4.095 4.296-2.461 0-4.07-1.704-4.07-4.296V24.512h-1.799V35.96c0 3.408 2.461 5.784 5.87 5.784 3.407 0 5.892-2.376 5.892-5.784zm16.425 5.64h-2.106l-3.834-7.584h-4.047V41.6h-1.799V24.512h6.461c2.935 0 4.994 1.8 4.994 4.752 0 2.496-1.491 4.128-3.669 4.584l4 7.752zm-2.13-12.312c0-2.088-1.396-3.144-3.36-3.144h-4.497v6.264h4.496c1.965 0 3.361-1.032 3.361-3.12zM490.85 41.6V24.512h-1.799V41.6h1.799zm17.324 0V24.512h-1.799v13.656l-8.946-13.656h-1.704V41.6h1.799V27.896L506.47 41.6h1.704zm14.697-15.456v-1.632h-11.55v1.632h4.876V41.6h1.799V26.144h4.875zM536.479 41.6v-1.632h-8.662V33.8h7.384v-1.632h-7.384v-6.024h8.662v-1.632h-10.46V41.6h10.46zm15.526 0h-2.107l-3.834-7.584h-4.047V41.6h-1.798V24.512h6.46c2.935 0 4.994 1.8 4.994 4.752 0 2.496-1.49 4.128-3.668 4.584l4 7.752zm-2.13-12.312c0-2.088-1.397-3.144-3.361-3.144h-4.497v6.264h4.497c1.964 0 3.36-1.032 3.36-3.12zM568.193 41.6V24.512h-1.799v13.656l-8.946-13.656h-1.704V41.6h1.799V27.896l8.946 13.704h1.704zm15.336 0v-1.632h-8.662V33.8h7.384v-1.632h-7.384v-6.024h8.662v-1.632h-10.461V41.6h10.46zm13.56-15.456v-1.632H585.54v1.632h4.876V41.6h1.798V26.144h4.876z" fill="#00BFD6"/><path d="M622.355 35.96V24.512h-1.798v11.304c0 2.592-1.633 4.296-4.095 4.296-2.461 0-4.07-1.704-4.07-4.296V24.512h-1.8V35.96c0 3.408 2.462 5.784 5.87 5.784s5.893-2.376 5.893-5.784zm16.117-6.432c0 3.048-2.153 5.04-5.206 5.04h-4.473V41.6h-1.8V24.512h6.273c3.053 0 5.206 1.968 5.206 5.016zm-1.798 0c0-2.256-1.444-3.384-3.55-3.384h-4.331v6.792h4.33c2.107 0 3.55-1.152 3.55-3.408zm20.945-3.384v-1.632h-11.55v1.632h4.876V41.6h1.798V26.144h4.876zm14.294 6.912c0 3.912-.118 5.4-1.704 7.008-1.041 1.056-2.437 1.68-4.189 1.68-1.751 0-3.171-.624-4.212-1.68-1.586-1.608-1.68-3.096-1.68-7.008s.094-5.4 1.68-7.008c1.04-1.056 2.46-1.68 4.212-1.68 1.752 0 3.148.624 4.19 1.68 1.585 1.608 1.703 3.096 1.703 7.008zm-1.798 0c0-3.504-.119-4.752-1.184-5.856-.78-.792-1.775-1.2-2.91-1.2-1.137 0-2.13.408-2.912 1.2-1.065 1.104-1.183 2.352-1.183 5.856s.118 4.752 1.183 5.856c.781.792 1.775 1.2 2.911 1.2 1.136 0 2.13-.408 2.911-1.2 1.065-1.104 1.184-2.352 1.184-5.856zm23.619 0c0 2.616 0 5.112-1.491 6.744-1.136 1.248-2.532 1.8-4.426 1.8h-5.774V24.512h5.774c1.894 0 3.29.552 4.426 1.8 1.49 1.632 1.49 4.128 1.49 6.744zm-1.799 0c0-2.376-.023-4.488-1.112-5.664-.852-.96-2.035-1.248-3.313-1.248h-3.669v13.824h3.669c1.278 0 2.46-.288 3.313-1.248 1.089-1.176 1.112-3.288 1.112-5.664zM709.71 41.6h-1.917l-1.35-3.864h-7.36l-1.348 3.864h-1.917l6.2-17.088h1.515l6.177 17.088zm-3.787-5.448l-3.124-9.024-3.171 9.024h6.295zm16.33-10.008v-1.632h-11.55v1.632h4.876V41.6h1.799V26.144h4.875zM735.861 41.6v-1.632h-8.662V33.8h7.384v-1.632h-7.384v-6.024h8.662v-1.632H725.4V41.6h10.46zm11.975-12.864c0-2.568-1.94-4.368-4.426-4.368-2.556 0-4.45 1.944-4.45 4.392h1.705c0-1.512 1.065-2.856 2.745-2.856 1.586 0 2.722 1.224 2.722 2.832 0 .816-.331 1.368-.781 2.04l-1.917 2.808c-.497.72-.734 1.32-.734 2.256v.96h1.704v-.936c0-.384.142-.96.426-1.392l1.94-2.832c.616-.912 1.066-1.776 1.066-2.904zM744.57 41.6v-2.016h-2.035V41.6h2.035z" fill="#FFAC40"/></g></g></svg>