<svg width="296" height="65" viewBox="0 0 296 65" xmlns="http://www.w3.org/2000/svg" xmlns:xlink="http://www.w3.org/1999/xlink"><title>logo-internetnl-en</title><defs><circle id="a" cx="32" cy="32" r="32"/><path id="c" d="M0 0h35.344v33.473H0z"/></defs><g fill="none" fill-rule="evenodd"><mask id="b" fill="#fff"><use xlink:href="#a"/></mask><use fill="#00BFD6" xlink:href="#a"/><g mask="url(#b)"><g transform="rotate(20 33.491 52.956)"><mask id="d" fill="#fff"><use xlink:href="#c"/></mask><g mask="url(#d)" fill-rule="nonzero" fill="#FFF"><path d="M35.344 39.392c3.345 0 6.021-2.636 6.021-5.844s-2.676-5.844-6.021-5.844c-3.345 0-6.021 2.636-6.021 5.844s2.676 5.844 6.02 5.844zm0 5.76c-6.507 0-11.781-5.195-11.781-11.604 0-6.409 5.274-11.604 11.78-11.604 6.507 0 11.782 5.195 11.782 11.604 0 6.409-5.275 11.604-11.781 11.604z"/><path d="M35.344 50.03c9.9 0 17.802-7.485 17.802-16.557 0-9.07-7.902-16.555-17.802-16.555-9.9 0-17.803 7.484-17.803 16.555 0 9.072 7.903 16.556 17.803 16.556zm0 5.76c-13.013 0-23.563-9.992-23.563-22.317 0-12.324 10.55-22.315 23.563-22.315 13.013 0 23.562 9.99 23.562 22.315 0 12.325-10.549 22.316-23.562 22.316z"/><path d="M35.344 61.187c16.407 0 29.584-12.48 29.584-27.714C64.928 18.24 51.75 5.76 35.344 5.76S5.76 18.24 5.76 33.473c0 15.234 13.177 27.714 29.584 27.714zm0 5.76C15.824 66.947 0 51.96 0 33.473 0 14.986 15.824 0 35.344 0c19.52 0 35.344 14.986 35.344 33.473S54.864 66.947 35.344 66.947z"/></g></g><path d="M34.903 46.974a12.467 12.467 0 0 0 6.857 2.045c6.98 0 12.64-5.73 12.64-12.8s-5.66-12.8-12.64-12.8-12.64 5.73-12.64 12.8c0 2.41.658 4.665 1.802 6.59l-8.139 8.139a2.88 2.88 0 1 0 4.073 4.073l8.047-8.047z" fill="#FFF"/><path d="M41.92 39.617c1.762 0 3.212-1.468 3.212-3.305 0-1.837-1.45-3.305-3.212-3.305-1.762 0-3.212 1.468-3.212 3.305 0 1.837 1.45 3.305 3.212 3.305zm0 4.148c-4.065 0-7.36-3.337-7.36-7.453s3.295-7.453 7.36-7.453 7.36 3.337 7.36 7.453-3.295 7.453-7.36 7.453z" fill="#FFAC40" fill-rule="nonzero"/></g><path d="M78.776 40.708V6H72v34.708h6.776zm27.797 0V24.475c0-2.779-.536-5.167-2.583-7.215-1.414-1.413-3.461-2.242-5.996-2.242-2.34 0-4.68.878-6.337 2.632v-2.34h-6.19v25.398h6.336V25.352c0-3.46 2.243-4.63 4.241-4.63 1.999 0 4.192 1.17 4.192 4.63v15.356h6.337zm17.318 0v-5.363H121.6c-1.512 0-2.194-.828-2.194-2.29V20.867h4.485v-4.826h-4.485V8.535h-6.337v7.507h-2.681v4.826h2.68v12.576c0 3.608 2.195 7.264 7.362 7.264h3.46zm25.458-10.725v-2.68c0-7.215-3.998-12.285-11.066-12.285-6.58 0-11.065 4.68-11.065 12.967C127.218 38.27 132.97 41 138.966 41c4.582 0 7.068-1.365 9.651-3.997l-3.85-3.754c-1.61 1.56-2.974 2.389-5.753 2.389-3.607 0-5.557-2.34-5.557-5.655h15.892zm-6.24-4.338h-9.652c.049-1.121.146-1.804.585-2.73.683-1.511 2.096-2.632 4.241-2.632 2.145 0 3.559 1.12 4.241 2.632.439.926.536 1.609.585 2.73zm29.748-8.238c-1.755-1.755-3.51-2.389-5.996-2.389-2.73 0-5.167 1.268-6.386 2.73V15.31h-6.19v25.397h6.336V25.4c0-3.217 2.145-4.68 4.095-4.68 1.56 0 2.388.537 3.363 1.512l4.778-4.826zm23.8 23.3V24.476c0-2.779-.536-5.167-2.584-7.215-1.413-1.413-3.46-2.242-5.995-2.242-2.34 0-4.68.878-6.337 2.632v-2.34h-6.191v25.398h6.337V25.352c0-3.46 2.242-4.63 4.24-4.63 2 0 4.193 1.17 4.193 4.63v15.356h6.337zm26.774-10.724v-2.68c0-7.215-3.997-12.285-11.065-12.285-6.581 0-11.066 4.68-11.066 12.967C201.3 38.27 207.052 41 213.048 41c4.582 0 7.068-1.365 9.652-3.997l-3.851-3.754c-1.609 1.56-2.974 2.389-5.752 2.389-3.607 0-5.557-2.34-5.557-5.655h15.891zm-6.24-4.338h-9.651c.048-1.121.146-1.804.585-2.73.682-1.511 2.096-2.632 4.24-2.632 2.145 0 3.56 1.12 4.242 2.632.438.926.536 1.609.585 2.73zm22.582 15.063v-5.363h-2.29c-1.512 0-2.194-.828-2.194-2.29V20.867h4.484v-4.826h-4.484V8.535h-6.337v7.507h-2.681v4.826h2.68v12.576c0 3.608 2.194 7.264 7.361 7.264h3.461zm11.858 0v-7.215h-7.263v7.215h7.263zm27.066 0V24.475c0-2.779-.536-5.167-2.583-7.215-1.414-1.413-3.461-2.242-5.996-2.242-2.34 0-4.68.878-6.337 2.632v-2.34h-6.19v25.398h6.336V25.352c0-3.46 2.243-4.63 4.241-4.63 1.999 0 4.192 1.17 4.192 4.63v15.356h6.337zm16.684 0v-5.363h-2.437c-1.609 0-2.243-.78-2.243-2.29V6h-6.337v27.444c0 3.608 2.194 7.264 7.41 7.264h3.607z" fill="#00BFD6"/><g><path d="M73.685 57V46.32h-1.14V57h1.14zm9.525-2.94c0-.885-.33-1.605-.9-2.1-.48-.435-.945-.615-1.935-.765L79.13 51c-.555-.09-1.065-.27-1.395-.555-.33-.285-.48-.72-.48-1.245 0-1.2.825-1.995 2.265-1.995 1.11 0 1.845.315 2.49.93l.735-.735c-.915-.81-1.815-1.17-3.18-1.17-2.115 0-3.42 1.185-3.42 3 0 .87.285 1.53.825 2.01.48.42 1.11.675 1.95.81l1.245.18c.765.12 1.065.225 1.395.525.36.315.525.765.525 1.335 0 1.26-.96 1.98-2.535 1.98-1.2 0-2.025-.27-2.91-1.155l-.765.765c.99 1.005 2.055 1.41 3.645 1.41 2.235 0 3.69-1.155 3.69-3.03zm12.165-7.74h-1.23l-2.49 5.115-2.52-5.115h-1.23l3.18 6.27V57h1.14v-4.41l3.15-6.27zm8.73 5.34c0 2.445-.075 3.375-1.08 4.38-.66.66-1.545 1.05-2.655 1.05-1.11 0-2.01-.39-2.67-1.05-1.005-1.005-1.065-1.935-1.065-4.38s.06-3.375 1.065-4.38c.66-.66 1.56-1.05 2.67-1.05 1.11 0 1.995.39 2.655 1.05 1.005 1.005 1.08 1.935 1.08 4.38zm-1.14 0c0-2.19-.075-2.97-.75-3.66a2.535 2.535 0 0 0-1.845-.75c-.72 0-1.35.255-1.845.75-.675.69-.75 1.47-.75 3.66 0 2.19.075 2.97.75 3.66.495.495 1.125.75 1.845.75s1.35-.255 1.845-.75c.675-.69.75-1.47.75-3.66zm11.13 1.815V46.32h-1.14v7.065c0 1.62-1.035 2.685-2.595 2.685-1.56 0-2.58-1.065-2.58-2.685V46.32h-1.14v7.155c0 2.13 1.56 3.615 3.72 3.615s3.735-1.485 3.735-3.615zM124.505 57h-1.335l-2.43-4.74h-2.565V57h-1.14V46.32h4.095c1.86 0 3.165 1.125 3.165 2.97 0 1.56-.945 2.58-2.325 2.865L124.505 57zm-1.35-7.695c0-1.305-.885-1.965-2.13-1.965h-2.85v3.915h2.85c1.245 0 2.13-.645 2.13-1.95zM131.75 57V46.32h-1.14V57h1.14zm10.98 0V46.32h-1.14v8.535l-5.67-8.535h-1.08V57h1.14v-8.565L141.65 57h1.08zm9.315-9.66v-1.02h-7.32v1.02h3.09V57h1.14v-9.66h3.09zM160.67 57v-1.02h-5.49v-3.855h4.68v-1.02h-4.68V47.34h5.49v-1.02h-6.63V57h6.63zm9.84 0h-1.335l-2.43-4.74h-2.565V57h-1.14V46.32h4.095c1.86 0 3.165 1.125 3.165 2.97 0 1.56-.945 2.58-2.325 2.865L170.51 57zm-1.35-7.695c0-1.305-.885-1.965-2.13-1.965h-2.85v3.915h2.85c1.245 0 2.13-.645 2.13-1.95zM180.77 57V46.32h-1.14v8.535l-5.67-8.535h-1.08V57h1.14v-8.565L179.69 57h1.08zm9.72 0v-1.02H185v-3.855h4.68v-1.02H185V47.34h5.49v-1.02h-6.63V57h6.63zm8.595-9.66v-1.02h-7.32v1.02h3.09V57h1.14v-9.66h3.09z" fill="#00BFD6"/><path d="M215.098 53.475V46.32h-1.14v7.065c0 1.62-1.035 2.685-2.595 2.685-1.56 0-2.58-1.065-2.58-2.685V46.32h-1.14v7.155c0 2.13 1.56 3.615 3.72 3.615s3.735-1.485 3.735-3.615zm10.215-4.02c0 1.905-1.365 3.15-3.3 3.15h-2.835V57h-1.14V46.32h3.975c1.935 0 3.3 1.23 3.3 3.135zm-1.14 0c0-1.41-.915-2.115-2.25-2.115h-2.745v4.245h2.745c1.335 0 2.25-.72 2.25-2.13zm13.275-2.115v-1.02h-7.32v1.02h3.09V57h1.14v-9.66h3.09zm9.06 4.32c0 2.445-.075 3.375-1.08 4.38-.66.66-1.545 1.05-2.655 1.05-1.11 0-2.01-.39-2.67-1.05-1.005-1.005-1.065-1.935-1.065-4.38s.06-3.375 1.065-4.38c.66-.66 1.56-1.05 2.67-1.05 1.11 0 1.995.39 2.655 1.05 1.005 1.005 1.08 1.935 1.08 4.38zm-1.14 0c0-2.19-.075-2.97-.75-3.66a2.535 2.535 0 0 0-1.845-.75c-.72 0-1.35.255-1.845.75-.675.69-.75 1.47-.75 3.66 0 2.19.075 2.97.75 3.66.495.495 1.125.75 1.845.75s1.35-.255 1.845-.75c.675-.69.75-1.47.75-3.66zm14.97 0c0 1.635 0 3.195-.945 4.215-.72.78-1.605 1.125-2.805 1.125h-3.66V46.32h3.66c1.2 0 2.085.345 2.805 1.125.945 1.02.945 2.58.945 4.215zm-1.14 0c0-1.485-.015-2.805-.705-3.54-.54-.6-1.29-.78-2.1-.78h-2.325v8.64h2.325c.81 0 1.56-.18 2.1-.78.69-.735.705-2.055.705-3.54zM270.463 57h-1.215l-.855-2.415h-4.665L262.873 57h-1.215l3.93-10.68h.96L270.463 57zm-2.4-3.405l-1.98-5.64-2.01 5.64h3.99zm10.35-6.255v-1.02h-7.32v1.02h3.09V57h1.14v-9.66h3.09zm8.625 9.66v-1.02h-5.49v-3.855h4.68v-1.02h-4.68V47.34h5.49v-1.02h-6.63V57h6.63zm7.59-8.04c0-1.605-1.23-2.73-2.805-2.73-1.62 0-2.82 1.215-2.82 2.745h1.08c0-.945.675-1.785 1.74-1.785 1.005 0 1.725.765 1.725 1.77 0 .51-.21.855-.495 1.275l-1.215 1.755c-.315.45-.465.825-.465 1.41v.6h1.08v-.585c0-.24.09-.6.27-.87l1.23-1.77c.39-.57.675-1.11.675-1.815zm-2.07 8.04v-1.26h-1.29V57h1.29z" fill="#FFAC40"/></g></g></svg>