<svg width="296" height="65" viewBox="0 0 296 65" xmlns="http://www.w3.org/2000/svg" xmlns:xlink="http://www.w3.org/1999/xlink"><title>logo-internetnl-nl</title><defs><circle id="a" cx="32" cy="32" r="32"/><path id="c" d="M0 0h35.344v33.473H0z"/></defs><g fill="none" fill-rule="evenodd"><mask id="b" fill="#fff"><use xlink:href="#a"/></mask><use fill="#00BFD6" xlink:href="#a"/><g mask="url(#b)"><g transform="rotate(20 33.491 52.956)"><mask id="d" fill="#fff"><use xlink:href="#c"/></mask><g mask="url(#d)" fill-rule="nonzero" fill="#FFF"><path d="M35.344 39.392c3.345 0 6.021-2.636 6.021-5.844s-2.676-5.844-6.021-5.844c-3.345 0-6.021 2.636-6.021 5.844s2.676 5.844 6.02 5.844zm0 5.76c-6.507 0-11.781-5.195-11.781-11.604 0-6.409 5.274-11.604 11.78-11.604 6.507 0 11.782 5.195 11.782 11.604 0 6.409-5.275 11.604-11.781 11.604z"/><path d="M35.344 50.03c9.9 0 17.802-7.485 17.802-16.557 0-9.07-7.902-16.555-17.802-16.555-9.9 0-17.803 7.484-17.803 16.555 0 9.072 7.903 16.556 17.803 16.556zm0 5.76c-13.013 0-23.563-9.992-23.563-22.317 0-12.324 10.55-22.315 23.563-22.315 13.013 0 23.562 9.99 23.562 22.315 0 12.325-10.549 22.316-23.562 22.316z"/><path d="M35.344 61.187c16.407 0 29.584-12.48 29.584-27.714C64.928 18.24 51.75 5.76 35.344 5.76S5.76 18.24 5.76 33.473c0 15.234 13.177 27.714 29.584 27.714zm0 5.76C15.824 66.947 0 51.96 0 33.473 0 14.986 15.824 0 35.344 0c19.52 0 35.344 14.986 35.344 33.473S54.864 66.947 35.344 66.947z"/></g></g><path d="M34.903 46.974a12.467 12.467 0 0 0 6.857 2.045c6.98 0 12.64-5.73 12.64-12.8s-5.66-12.8-12.64-12.8-12.64 5.73-12.64 12.8c0 2.41.658 4.665 1.802 6.59l-8.139 8.139a2.88 2.88 0 1 0 4.073 4.073l8.047-8.047z" fill="#FFF"/><path d="M41.92 39.617c1.762 0 3.212-1.468 3.212-3.305 0-1.837-1.45-3.305-3.212-3.305-1.762 0-3.212 1.468-3.212 3.305 0 1.837 1.45 3.305 3.212 3.305zm0 4.148c-4.065 0-7.36-3.337-7.36-7.453s3.295-7.453 7.36-7.453 7.36 3.337 7.36 7.453-3.295 7.453-7.36 7.453z" fill="#FFAC40" fill-rule="nonzero"/></g><path d="M78.776 40.708V6H72v34.708h6.776zm27.797 0V24.475c0-2.779-.536-5.167-2.583-7.215-1.414-1.413-3.461-2.242-5.996-2.242-2.34 0-4.68.878-6.337 2.632v-2.34h-6.19v25.398h6.336V25.352c0-3.46 2.243-4.63 4.241-4.63 1.999 0 4.192 1.17 4.192 4.63v15.356h6.337zm17.318 0v-5.363H121.6c-1.512 0-2.194-.828-2.194-2.29V20.867h4.485v-4.826h-4.485V8.535h-6.337v7.507h-2.681v4.826h2.68v12.576c0 3.608 2.195 7.264 7.362 7.264h3.46zm25.458-10.725v-2.68c0-7.215-3.998-12.285-11.066-12.285-6.58 0-11.065 4.68-11.065 12.967C127.218 38.27 132.97 41 138.966 41c4.582 0 7.068-1.365 9.651-3.997l-3.85-3.754c-1.61 1.56-2.974 2.389-5.753 2.389-3.607 0-5.557-2.34-5.557-5.655h15.892zm-6.24-4.338h-9.652c.049-1.121.146-1.804.585-2.73.683-1.511 2.096-2.632 4.241-2.632 2.145 0 3.559 1.12 4.241 2.632.439.926.536 1.609.585 2.73zm29.748-8.238c-1.755-1.755-3.51-2.389-5.996-2.389-2.73 0-5.167 1.268-6.386 2.73V15.31h-6.19v25.397h6.336V25.4c0-3.217 2.145-4.68 4.095-4.68 1.56 0 2.388.537 3.363 1.512l4.778-4.826zm23.8 23.3V24.476c0-2.779-.536-5.167-2.584-7.215-1.413-1.413-3.46-2.242-5.995-2.242-2.34 0-4.68.878-6.337 2.632v-2.34h-6.191v25.398h6.337V25.352c0-3.46 2.242-4.63 4.24-4.63 2 0 4.193 1.17 4.193 4.63v15.356h6.337zm26.774-10.724v-2.68c0-7.215-3.997-12.285-11.065-12.285-6.581 0-11.066 4.68-11.066 12.967C201.3 38.27 207.052 41 213.048 41c4.582 0 7.068-1.365 9.652-3.997l-3.851-3.754c-1.609 1.56-2.974 2.389-5.752 2.389-3.607 0-5.557-2.34-5.557-5.655h15.891zm-6.24-4.338h-9.651c.048-1.121.146-1.804.585-2.73.682-1.511 2.096-2.632 4.24-2.632 2.145 0 3.56 1.12 4.242 2.632.438.926.536 1.609.585 2.73zm22.582 15.063v-5.363h-2.29c-1.512 0-2.194-.828-2.194-2.29V20.867h4.484v-4.826h-4.484V8.535h-6.337v7.507h-2.681v4.826h2.68v12.576c0 3.608 2.194 7.264 7.361 7.264h3.461zm11.858 0v-7.215h-7.263v7.215h7.263zm27.066 0V24.475c0-2.779-.536-5.167-2.583-7.215-1.414-1.413-3.461-2.242-5.996-2.242-2.34 0-4.68.878-6.337 2.632v-2.34h-6.19v25.398h6.336V25.352c0-3.46 2.243-4.63 4.241-4.63 1.999 0 4.192 1.17 4.192 4.63v15.356h6.337zm16.684 0v-5.363h-2.437c-1.609 0-2.243-.78-2.243-2.29V6h-6.337v27.444c0 3.608 2.194 7.264 7.41 7.264h3.607z" fill="#00BFD6"/><g><path d="M73.174 56.522V46.306h-1.13v10.216h1.13zm9.434-2.812c0-.847-.327-1.536-.891-2.01-.476-.415-.936-.587-1.917-.73l-1.233-.187c-.55-.086-1.055-.259-1.382-.531-.327-.273-.475-.689-.475-1.191 0-1.148.817-1.908 2.243-1.908 1.1 0 1.828.3 2.467.89l.728-.704c-.907-.775-1.798-1.119-3.15-1.119-2.095 0-3.388 1.133-3.388 2.87 0 .832.283 1.463.818 1.922.475.402 1.099.646 1.931.775l1.233.172c.758.115 1.055.215 1.382.502.357.302.52.732.52 1.277 0 1.205-.95 1.894-2.511 1.894-1.189 0-2.006-.258-2.882-1.105l-.758.732c.98.961 2.035 1.349 3.61 1.349 2.214 0 3.655-1.105 3.655-2.898zm10.594-.287v-7.117h-1.13v6.973c0 1.507-.787 2.353-2.169 2.353-.876 0-1.277-.301-1.664-.674l-.757.732c.653.63 1.411.918 2.421.918 1.932 0 3.299-1.22 3.299-3.185zm9.91-2.01c0-2.338-.075-3.227-1.07-4.189-.654-.631-1.53-1.004-2.63-1.004-1.1 0-1.99.373-2.644 1.004-.996.962-1.055 1.851-1.055 4.19 0 2.339.059 3.228 1.055 4.19.653.63 1.545 1.004 2.644 1.004 1.1 0 1.976-.373 2.63-1.005.995-.96 1.07-1.85 1.07-4.19zm-1.13 0c0 2.096-.074 2.842-.742 3.502-.49.473-1.115.717-1.828.717-.713 0-1.337-.244-1.827-.717-.669-.66-.743-1.406-.743-3.501 0-2.095.074-2.841.743-3.501.49-.473 1.114-.717 1.827-.717.713 0 1.337.244 1.828.717.668.66.742 1.406.742 3.5zm11.025 1.737v-6.844h-1.13v6.758c0 1.55-1.025 2.568-2.57 2.568s-2.555-1.019-2.555-2.568v-6.758h-1.13v6.844c0 2.037 1.546 3.458 3.685 3.458 2.14 0 3.7-1.42 3.7-3.458zm13.832-6.844h-1.203l-2.066 8.236-2.332-8.236h-1.01l-2.333 8.236-2.065-8.236h-1.204l2.704 10.216h1.055l2.348-8.179 2.347 8.179h1.055l2.704-10.216zm6.597 10.216V46.306h-1.13v10.216h1.13zm10.876 0V46.306h-1.13v8.164l-5.616-8.164h-1.07v10.216h1.13v-8.193l5.616 8.193h1.07zm9.226-9.24v-.976h-7.25v.976h3.06v9.24h1.13v-9.24h3.06zm8.543 9.24v-.976h-5.438V51.86h4.636v-.976h-4.636v-3.601h5.438v-.976h-6.567v10.216h6.567zm9.747 0l-2.511-4.635c1.367-.272 2.303-1.248 2.303-2.74 0-1.765-1.293-2.84-3.135-2.84h-4.056v10.215h1.129v-4.534h2.54l2.407 4.534h1.323zm-1.337-7.36c0 1.248-.877 1.865-2.11 1.865h-2.823v-3.745h2.823c1.233 0 2.11.631 2.11 1.88zm11.5 7.36V46.306h-1.13v8.164l-5.616-8.164h-1.07v10.216h1.13v-8.193l5.616 8.193h1.07zm9.627 0v-.976h-5.438V51.86h4.636v-.976h-4.636v-3.601h5.438v-.976h-6.567v10.216h6.567zm8.513-9.24v-.976h-7.25v.976h3.06v9.24h1.13v-9.24h3.06z" fill="#00BFD6"/><g fill="#FFAC40"><path d="M213.043 53.15v-6.844h-1.13v6.758c0 1.55-1.025 2.568-2.57 2.568s-2.555-1.019-2.555-2.568v-6.758h-1.13v6.844c0 2.037 1.546 3.458 3.685 3.458 2.14 0 3.7-1.42 3.7-3.458zM223.16 49.305c0 1.822-1.352 3.013-3.268 3.013h-2.808v4.204h-1.13V46.306h3.938c1.916 0 3.269 1.177 3.269 2.999zm-1.129 0c0-1.349-.906-2.023-2.228-2.023h-2.72v4.06h2.72c1.322 0 2.228-.689 2.228-2.037zM228.985 53.136v-.962h-4.071v.962zM236.919 47.282v-.976h-7.25v.976h3.06v9.24h1.129v-9.24zM245.595 51.414c0 2.339-.074 3.228-1.07 4.19-.653.63-1.53 1.004-2.63 1.004-1.099 0-1.99-.373-2.644-1.005-.995-.96-1.055-1.85-1.055-4.19 0-2.338.06-3.227 1.055-4.189.654-.631 1.545-1.004 2.645-1.004s1.976.373 2.63 1.004c.995.962 1.07 1.851 1.07 4.19zm-1.129 0c0-2.095-.074-2.841-.743-3.501-.49-.473-1.114-.717-1.827-.717-.713 0-1.337.244-1.828.717-.668.66-.743 1.406-.743 3.5 0 2.096.075 2.842.743 3.502.49.473 1.115.717 1.828.717.713 0 1.337-.244 1.827-.717.669-.66.743-1.406.743-3.501zM251.925 53.136v-.962h-4.071v.962zM261.924 51.414c0 1.564 0 3.056-.936 4.032-.713.746-1.59 1.076-2.779 1.076h-3.625V46.306h3.625c1.189 0 2.066.33 2.779 1.076.936.976.936 2.468.936 4.032zm-1.13 0c0-1.42-.014-2.683-.698-3.386-.535-.574-1.277-.746-2.08-.746h-2.303v8.264h2.303c.803 0 1.545-.172 2.08-.746.684-.703.699-1.966.699-3.386zM271.804 56.522h-1.203l-.847-2.31h-4.621l-.847 2.31h-1.203l3.892-10.216h.951l3.878 10.216zm-2.377-3.257l-1.961-5.395-1.991 5.395h3.952zM278.787 47.282v-.976h-7.25v.976h3.06v9.24h1.13v-9.24zM287.33 56.522v-.976h-5.438V51.86h4.636v-.976h-4.636v-3.601h5.438v-.976h-6.567v10.216zM294.848 48.831c0-1.535-1.218-2.611-2.778-2.611-1.605 0-2.793 1.162-2.793 2.626h1.07c0-.904.668-1.708 1.723-1.708.995 0 1.708.732 1.708 1.693 0 .488-.208.818-.49 1.22l-1.203 1.679c-.312.43-.461.789-.461 1.348v.574h1.07v-.56c0-.229.089-.573.267-.832l1.218-1.693c.387-.545.67-1.061.67-1.736zM292.798 56.522v-1.205h-1.278v1.205z"/></g></g></g></svg>