<svg width="762" height="64" viewBox="0 0 762 64" xmlns="http://www.w3.org/2000/svg" xmlns:xlink="http://www.w3.org/1999/xlink"><title>logo-internetnlnl-tablet-nl</title><defs><circle id="a" cx="32" cy="32" r="32"/><path id="c" d="M0 0h35.344v33.473H0z"/></defs><g fill="none" fill-rule="evenodd"><mask id="b" fill="#fff"><use xlink:href="#a"/></mask><use fill="#00BFD6" xlink:href="#a"/><g mask="url(#b)"><g transform="rotate(20 33.491 52.956)"><mask id="d" fill="#fff"><use xlink:href="#c"/></mask><g mask="url(#d)" fill-rule="nonzero" fill="#FFF"><path d="M35.344 39.392c3.345 0 6.021-2.636 6.021-5.844s-2.676-5.844-6.021-5.844c-3.345 0-6.021 2.636-6.021 5.844s2.676 5.844 6.02 5.844zm0 5.76c-6.507 0-11.781-5.195-11.781-11.604 0-6.409 5.274-11.604 11.78-11.604 6.507 0 11.782 5.195 11.782 11.604 0 6.409-5.275 11.604-11.781 11.604z"/><path d="M35.344 50.03c9.9 0 17.802-7.485 17.802-16.557 0-9.07-7.902-16.555-17.802-16.555-9.9 0-17.803 7.484-17.803 16.555 0 9.072 7.903 16.556 17.803 16.556zm0 5.76c-13.013 0-23.563-9.992-23.563-22.317 0-12.324 10.55-22.315 23.563-22.315 13.013 0 23.562 9.99 23.562 22.315 0 12.325-10.549 22.316-23.562 22.316z"/><path d="M35.344 61.187c16.407 0 29.584-12.48 29.584-27.714C64.928 18.24 51.75 5.76 35.344 5.76S5.76 18.24 5.76 33.473c0 15.234 13.177 27.714 29.584 27.714zm0 5.76C15.824 66.947 0 51.96 0 33.473 0 14.986 15.824 0 35.344 0c19.52 0 35.344 14.986 35.344 33.473S54.864 66.947 35.344 66.947z"/></g></g><path d="M34.903 46.974a12.467 12.467 0 0 0 6.857 2.045c6.98 0 12.64-5.73 12.64-12.8s-5.66-12.8-12.64-12.8-12.64 5.73-12.64 12.8c0 2.41.658 4.665 1.802 6.59l-8.139 8.139a2.88 2.88 0 1 0 4.073 4.073l8.047-8.047z" fill="#FFF"/><path d="M41.92 39.617c1.762 0 3.212-1.468 3.212-3.305 0-1.837-1.45-3.305-3.212-3.305-1.762 0-3.212 1.468-3.212 3.305 0 1.837 1.45 3.305 3.212 3.305zm0 4.148c-4.065 0-7.36-3.337-7.36-7.453s3.295-7.453 7.36-7.453 7.36 3.337 7.36 7.453-3.295 7.453-7.36 7.453z" fill="#FFAC40" fill-rule="nonzero"/></g><path d="M84.896 54.568V9H76v45.568h8.896zm36.496 0V33.256c0-3.648-.704-6.784-3.392-9.472-1.856-1.856-4.544-2.944-7.872-2.944-3.072 0-6.144 1.152-8.32 3.456v-3.072H93.68v33.344H102v-20.16c0-4.544 2.944-6.08 5.568-6.08 2.624 0 5.504 1.536 5.504 6.08v20.16h8.32zm22.736 0v-7.04h-3.008c-1.984 0-2.88-1.088-2.88-3.008v-16h5.888v-6.336h-5.888v-9.856h-8.32v9.856h-3.52v6.336h3.52v16.512c0 4.736 2.88 9.536 9.664 9.536h4.544zm33.424-14.08v-3.52c0-9.472-5.248-16.128-14.528-16.128-8.64 0-14.528 6.144-14.528 17.024 0 13.504 7.552 17.088 15.424 17.088 6.016 0 9.28-1.792 12.672-5.248l-5.056-4.928c-2.112 2.048-3.904 3.136-7.552 3.136-4.736 0-7.296-3.072-7.296-7.424h20.864zm-8.192-5.696h-12.672c.064-1.472.192-2.368.768-3.584.896-1.984 2.752-3.456 5.568-3.456s4.672 1.472 5.568 3.456c.576 1.216.704 2.112.768 3.584zm39.056-10.816c-2.304-2.304-4.608-3.136-7.872-3.136-3.584 0-6.784 1.664-8.384 3.584v-3.2h-8.128v33.344h8.32V34.472c0-4.224 2.816-6.144 5.376-6.144 2.048 0 3.136.704 4.416 1.984l6.272-6.336zm31.248 30.592V33.256c0-3.648-.704-6.784-3.392-9.472-1.856-1.856-4.544-2.944-7.872-2.944-3.072 0-6.144 1.152-8.32 3.456v-3.072h-8.128v33.344h8.32v-20.16c0-4.544 2.944-6.08 5.568-6.08 2.624 0 5.504 1.536 5.504 6.08v20.16h8.32zm35.152-14.08v-3.52c0-9.472-5.248-16.128-14.528-16.128-8.64 0-14.528 6.144-14.528 17.024 0 13.504 7.552 17.088 15.424 17.088 6.016 0 9.28-1.792 12.672-5.248l-5.056-4.928c-2.112 2.048-3.904 3.136-7.552 3.136-4.736 0-7.296-3.072-7.296-7.424h20.864zm-8.192-5.696h-12.672c.064-1.472.192-2.368.768-3.584.896-1.984 2.752-3.456 5.568-3.456s4.672 1.472 5.568 3.456c.576 1.216.704 2.112.768 3.584zm29.648 19.776v-7.04h-3.008c-1.984 0-2.88-1.088-2.88-3.008v-16h5.888v-6.336h-5.888v-9.856h-8.32v9.856h-3.52v6.336h3.52v16.512c0 4.736 2.88 9.536 9.664 9.536h4.544zm15.568 0v-9.472h-9.536v9.472h9.536zm35.536 0V33.256c0-3.648-.704-6.784-3.392-9.472-1.856-1.856-4.544-2.944-7.872-2.944-3.072 0-6.144 1.152-8.32 3.456v-3.072h-8.128v33.344h8.32v-20.16c0-4.544 2.944-6.08 5.568-6.08 2.624 0 5.504 1.536 5.504 6.08v20.16h8.32zm21.904 0v-7.04h-3.2c-2.112 0-2.944-1.024-2.944-3.008V9h-8.32v36.032c0 4.736 2.88 9.536 9.728 9.536h4.736z" fill="#00BFD6"/><g><path d="M399.86 40.26V24.474h-1.79v15.788h1.79zm14.952-4.345c0-1.308-.518-2.373-1.413-3.105-.753-.643-1.483-.909-3.037-1.13l-1.954-.289c-.872-.133-1.672-.399-2.19-.82-.518-.421-.754-1.064-.754-1.84 0-1.774 1.295-2.95 3.556-2.95 1.742 0 2.896.466 3.909 1.375l1.153-1.086c-1.436-1.198-2.849-1.73-4.992-1.73-3.32 0-5.368 1.752-5.368 4.435 0 1.286.447 2.262 1.295 2.971.753.621 1.742.998 3.06 1.197l1.955.267c1.201.177 1.672.332 2.19.776.565.465.824 1.13.824 1.973 0 1.863-1.507 2.927-3.98 2.927-1.883 0-3.178-.399-4.567-1.707l-1.201 1.13c1.554 1.486 3.226 2.085 5.722 2.085 3.508 0 5.792-1.707 5.792-4.48zm16.789-.444V24.473h-1.79V35.25c0 2.328-1.248 3.636-3.437 3.636-1.39 0-2.025-.466-2.638-1.042l-1.2 1.13c1.036.976 2.236 1.42 3.838 1.42 3.06 0 5.227-1.885 5.227-4.923zm15.705-3.104c0-3.614-.117-4.99-1.695-6.475-1.036-.975-2.425-1.552-4.168-1.552-1.742 0-3.155.577-4.19 1.552-1.579 1.486-1.673 2.86-1.673 6.475 0 3.614.094 4.99 1.672 6.475 1.036.975 2.449 1.552 4.191 1.552 1.743 0 3.132-.577 4.168-1.552 1.578-1.486 1.695-2.86 1.695-6.475zm-1.79 0c0 3.237-.117 4.39-1.176 5.41-.777.732-1.766 1.11-2.897 1.11-1.13 0-2.119-.378-2.896-1.11-1.06-1.02-1.177-2.173-1.177-5.41s.118-4.39 1.177-5.41c.777-.732 1.766-1.11 2.896-1.11s2.12.378 2.897 1.11c1.06 1.02 1.177 2.173 1.177 5.41zm17.472 2.683V24.473h-1.79v10.444c0 2.395-1.624 3.97-4.073 3.97-2.448 0-4.05-1.575-4.05-3.97V24.473h-1.79V35.05c0 3.149 2.45 5.344 5.84 5.344 3.391 0 5.863-2.195 5.863-5.344zm21.922-10.577h-1.907l-3.273 12.728-3.697-12.728h-1.601l-3.697 12.728-3.273-12.728h-1.907l4.285 15.788h1.672l3.72-12.64 3.721 12.64h1.672l4.285-15.788zm10.455 15.788V24.473h-1.79v15.788h1.79zm17.236 0V24.473h-1.79V37.09l-8.9-12.617h-1.696v15.788h1.79V27.6l8.9 12.66h1.696zm14.622-14.28v-1.508h-11.49v1.508h4.85v14.28h1.79V25.98h4.85zm13.54 14.28v-1.508h-8.618v-5.699h7.346v-1.507h-7.346V25.98h8.618v-1.508h-10.408v15.788h10.408zm15.446 0l-3.98-7.162c2.167-.422 3.65-1.93 3.65-4.236 0-2.727-2.048-4.39-4.968-4.39h-6.428v15.788h1.79v-7.007h4.026l3.815 7.007h2.095zm-2.119-11.375c0 1.929-1.39 2.882-3.344 2.882h-4.473v-5.787h4.473c1.955 0 3.344.976 3.344 2.905zm18.225 11.375V24.473h-1.79V37.09l-8.9-12.617h-1.696v15.788h1.79V27.6l8.9 12.66h1.696zm15.258 0v-1.508h-8.618v-5.699h7.347v-1.507h-7.347V25.98h8.618v-1.508h-10.407v15.788h10.407zm13.492-14.28v-1.508h-11.49v1.508h4.85v14.28h1.79V25.98h4.85z" fill="#00BFD6"/><g fill="#FFAC40"><path d="M621.527 35.05V24.473h-1.79v10.444c0 2.395-1.624 3.97-4.073 3.97-2.449 0-4.05-1.575-4.05-3.97V24.473h-1.79V35.05c0 3.149 2.45 5.344 5.84 5.344 3.39 0 5.863-2.195 5.863-5.344zM637.562 29.107c0 2.816-2.142 4.657-5.18 4.657h-4.45v6.497h-1.79V24.473h6.24c3.038 0 5.18 1.818 5.18 4.634zm-1.79 0c0-2.084-1.435-3.126-3.531-3.126h-4.31v6.275h4.31c2.096 0 3.532-1.064 3.532-3.149zM646.793 35.028v-1.486h-6.452v1.486zM659.366 25.98v-1.507h-11.49v1.508h4.85v14.28h1.79V25.98zM673.118 32.367c0 3.614-.118 4.99-1.696 6.475-1.036.975-2.425 1.552-4.167 1.552-1.743 0-3.156-.577-4.192-1.552-1.577-1.486-1.672-2.86-1.672-6.475 0-3.614.095-4.99 1.672-6.475 1.036-.975 2.45-1.552 4.192-1.552s3.131.577 4.167 1.552c1.578 1.486 1.696 2.86 1.696 6.475zm-1.79 0c0-3.237-.118-4.39-1.177-5.41-.777-.732-1.766-1.11-2.896-1.11s-2.12.378-2.897 1.11c-1.06 1.02-1.177 2.173-1.177 5.41s.118 4.39 1.177 5.41c.777.732 1.766 1.11 2.897 1.11 1.13 0 2.119-.378 2.896-1.11 1.06-1.02 1.177-2.173 1.177-5.41zM683.148 35.028v-1.486h-6.451v1.486zM698.995 32.367c0 2.417 0 4.723-1.483 6.23-1.13 1.154-2.52 1.664-4.403 1.664h-5.746V24.473h5.746c1.883 0 3.273.51 4.403 1.663 1.483 1.508 1.483 3.814 1.483 6.231zm-1.79 0c0-2.195-.023-4.147-1.106-5.233-.848-.887-2.025-1.153-3.296-1.153h-3.65v12.772h3.65c1.271 0 2.448-.266 3.296-1.153 1.083-1.087 1.107-3.038 1.107-5.233zM714.654 40.26h-1.908l-1.342-3.57h-7.323l-1.342 3.57h-1.907l6.17-15.787h1.506l6.146 15.788zm-3.768-5.033l-3.108-8.337-3.155 8.337h6.263zM725.72 25.98v-1.507h-11.49v1.508h4.85v14.28h1.79V25.98zM739.26 40.26v-1.507h-8.618v-5.699h7.346v-1.507h-7.346V25.98h8.618v-1.508h-10.408v15.788zM751.174 28.376c0-2.373-1.93-4.036-4.403-4.036-2.543 0-4.427 1.796-4.427 4.058h1.696c0-1.397 1.06-2.639 2.731-2.639 1.578 0 2.708 1.131 2.708 2.617 0 .754-.33 1.264-.777 1.884l-1.907 2.595c-.495.665-.73 1.22-.73 2.084v.887h1.695v-.865c0-.354.141-.887.424-1.286l1.93-2.616c.613-.843 1.06-1.641 1.06-2.683zM747.925 40.26v-1.862H745.9v1.863z"/></g></g></g></svg>