<svg xmlns="http://www.w3.org/2000/svg" width="18" height="18" viewBox="0 0 18 18" fill="none">
  <path fill-rule="evenodd" clip-rule="evenodd" d="M9.00142 3.5625C5.99921 3.5625 3.56543 5.99628 3.56543 8.9985C3.56543 12.0007 5.9992 14.4345 9.00142 14.4345C12.0037 14.4345 14.4374 12.0007 14.4374 8.9985C14.4374 5.99628 12.0037 3.5625 9.00142 3.5625ZM2.44043 8.9985C2.44043 5.37496 5.37788 2.4375 9.00142 2.4375C12.625 2.4375 15.5624 5.37496 15.5624 8.9985C15.5624 12.6221 12.625 15.5595 9.00142 15.5595C5.37788 15.5595 2.44043 12.6221 2.44043 8.9985ZM12.1704 7.00471C12.3901 7.22435 12.3901 7.5805 12.1705 7.8002L8.97772 10.9937C8.75809 11.2134 8.40196 11.2134 8.18226 10.9938L6.40251 9.21483C6.1828 8.99521 6.18272 8.63905 6.40235 8.41933C6.62197 8.19962 6.97813 8.19954 7.19784 8.41917L8.57979 9.80054L11.3749 7.0048C11.5945 6.7851 11.9507 6.78506 12.1704 7.00471Z" fill="#219653"/>
</svg>