<svg xmlns="http://www.w3.org/2000/svg" width="24" height="24" viewBox="0 0 24 24" fill="none">
  <path fill-rule="evenodd" clip-rule="evenodd" d="M11.998 4.75C7.99503 4.75 4.75 7.99504 4.75 11.998C4.75 16.001 7.99503 19.246 11.998 19.246C16.001 19.246 19.246 16.001 19.246 11.998C19.246 7.99504 16.001 4.75 11.998 4.75ZM3.25 11.998C3.25 7.16662 7.1666 3.25 11.998 3.25C16.8294 3.25 20.746 7.16662 20.746 11.998C20.746 16.8294 16.8294 20.746 11.998 20.746C7.16661 20.746 3.25 16.8294 3.25 11.998ZM11.9971 8.0283C12.4113 8.0283 12.7471 8.36409 12.7471 8.7783V12.1363C12.7471 12.5505 12.4113 12.8863 11.9971 12.8863C11.5829 12.8863 11.2471 12.5505 11.2471 12.1363V8.7783C11.2471 8.36409 11.5829 8.0283 11.9971 8.0283ZM12.3943 14.5795C12.7463 14.7979 12.8546 15.2603 12.6362 15.6122L12.6344 15.6151C12.416 15.9671 11.9536 16.0754 11.6016 15.857C11.2497 15.6386 11.1414 15.1762 11.3598 14.8243L11.3616 14.8214C11.58 14.4694 12.0424 14.3611 12.3943 14.5795Z" fill="#34545F"/>
</svg>