<svg width="50" height="50" viewBox="0 0 50 50" xmlns="http://www.w3.org/2000/svg"><title>icon-not-tested-bolt</title><g fill="none" fill-rule="evenodd"><path d="M42.24 9.928l-16.042-8.75a1.45 1.45 0 0 0-1.394 0L8.76 9.928c-.47.257-.761.747-.761 1.28v11.668c0 6.417 1.654 11.603 5.06 15.858 2.66 3.326 6.298 6.032 11.79 8.78a1.464 1.464 0 0 0 1.307 0c5.492-2.748 9.13-5.454 11.79-8.78 3.403-4.255 5.06-9.444 5.06-15.858V11.209c0-.534-.291-1.024-.761-1.28h-.006z" fill="#6D6D6D"/><path fill="#FFF" d="M37.291 5.905L32.21 26.51l-7.283-3.329L17.833 54V13.43l10.588 3.145L30.761 3"/></g></svg>