<svg width="50" height="50" viewBox="0 0 50 50" xmlns="http://www.w3.org/2000/svg"><title>icon-error</title><g fill="none" fill-rule="evenodd"><path d="M41.96 9.992L25.461 1.179a1.515 1.515 0 0 0-1.434 0L7.531 9.992a1.465 1.465 0 0 0-.783 1.29v11.75c0 6.462 1.7 11.685 5.204 15.97 2.736 3.35 6.476 6.075 12.124 8.842a1.531 1.531 0 0 0 1.344 0c5.648-2.767 9.388-5.493 12.124-8.842 3.5-4.285 5.204-9.511 5.204-15.97v-11.75c0-.538-.3-1.032-.783-1.29h-.006z" fill="#A61A00"/><path d="M22.115 25L15 32.115 17.885 35 25 27.885 32.115 35 35 32.115 27.885 25 35 17.885 32.115 15 25 22.115 17.885 15 15 17.885 22.115 25z" fill="#FFF"/></g></svg>