<svg width="50" height="50" viewBox="0 0 50 50" xmlns="http://www.w3.org/2000/svg"><title>icon-connectiontest</title><g fill="none" fill-rule="evenodd"><path d="M25 50c13.807 0 25-11.193 25-25S38.807 0 25 0 0 11.193 0 25s11.193 25 25 25z" fill="#8FA200"/><path d="M38.343 30.08h-2.812l-6.563-10.936v-5.582c0-.738-.603-1.34-1.339-1.34h-4.464c-.736 0-1.34.602-1.34 1.34v5.582l-6.562 10.935H12.45c-.735 0-1.339.604-1.339 1.34v4.464c0 .736.604 1.34 1.34 1.34h4.464c.737 0 1.339-.604 1.339-1.34V30.3l6.562-10.936h1.163l6.562 10.936v5.582c0 .736.604 1.34 1.34 1.34h4.464c.736 0 1.34-.604 1.34-1.34v-4.464c0-.736-.604-1.34-1.34-1.34h-.002z" fill="#FFF"/></g></svg>