<svg width="50" height="50" viewBox="0 0 50 50" xmlns="http://www.w3.org/2000/svg"><title>icon-not-tested-question-mark</title><g fill="none" fill-rule="evenodd"><path d="M43.211 9.992L26.714 1.179a1.515 1.515 0 0 0-1.434 0L8.783 9.992A1.465 1.465 0 0 0 8 11.282v11.75c0 6.462 1.7 11.685 5.204 15.97 2.736 3.35 6.476 6.075 12.124 8.842a1.531 1.531 0 0 0 1.344 0c5.648-2.767 9.388-5.493 12.124-8.842 3.5-4.285 5.204-9.511 5.204-15.97v-11.75c0-.538-.3-1.032-.783-1.29h-.006z" fill="#6D6D6D"/><path d="M23.185 30.226v-2.169c0-.578.033-1.072.099-1.48a3.63 3.63 0 0 1 .355-1.103c.17-.33.394-.645.67-.947.276-.302.611-.664 1.006-1.085l3.037-3.076c.657-.658.986-1.512.986-2.564 0-1.025-.335-1.86-1.006-2.504-.67-.645-1.518-.967-2.544-.967-1.104 0-2.011.375-2.721 1.124-.71.75-1.118 1.663-1.223 2.742l-5.049-.395c.158-1.262.487-2.386.987-3.372.5-.986 1.15-1.821 1.952-2.505a8.358 8.358 0 0 1 2.78-1.558c1.052-.355 2.21-.532 3.471-.532 1.184 0 2.281.17 3.294.513a7.863 7.863 0 0 1 2.642 1.479 6.631 6.631 0 0 1 1.756 2.406c.42.96.63 2.057.63 3.293 0 .868-.118 1.63-.354 2.288a7.44 7.44 0 0 1-.947 1.814 11.694 11.694 0 0 1-1.36 1.578c-.513.5-1.06 1.025-1.638 1.577a36.02 36.02 0 0 0-.946.907c-.263.263-.48.533-.65.809-.172.276-.297.592-.376.947a5.994 5.994 0 0 0-.118 1.281v1.5h-4.733zm-.789 5.483c0-.842.31-1.565.927-2.17a3.072 3.072 0 0 1 2.229-.907c.841 0 1.577.29 2.208.868.631.578.947 1.288.947 2.13 0 .841-.31 1.564-.927 2.17a3.072 3.072 0 0 1-2.228.906c-.421 0-.822-.079-1.203-.236a3.43 3.43 0 0 1-1.006-.631 2.933 2.933 0 0 1-.69-.947 2.775 2.775 0 0 1-.257-1.183z" fill="#FFF"/></g></svg>