<svg width="50" height="50" viewBox="0 0 50 50" xmlns="http://www.w3.org/2000/svg" xmlns:xlink="http://www.w3.org/1999/xlink"><title>icon-not-relevant</title><defs><path d="M43.211 9.992L26.714 1.179a1.515 1.515 0 0 0-1.434 0L8.783 9.992A1.465 1.465 0 0 0 8 11.282v11.75c0 6.462 1.7 11.685 5.204 15.97 2.736 3.35 6.476 6.075 12.124 8.842a1.531 1.531 0 0 0 1.344 0c5.648-2.767 9.388-5.493 12.124-8.842 3.5-4.285 5.204-9.511 5.204-15.97v-11.75c0-.538-.3-1.032-.783-1.29h-.006z" id="a"/></defs><g fill="none" fill-rule="evenodd"><use fill="#DCDCDC" xlink:href="#a"/><path stroke="#626262" d="M43.046 10.47c.283.18.454.484.454.811v11.75c0 6.348-1.667 11.462-5.091 15.655-2.684 3.285-6.366 5.97-11.957 8.71a1.038 1.038 0 0 1-.904 0c-5.591-2.74-9.273-5.425-11.957-8.71C10.165 34.494 8.5 29.384 8.5 23.031v-11.75c0-.352.197-.676.519-.848L25.516 1.62a1.015 1.015 0 0 1 .962 0l16.498 8.813.07.037z"/></g></svg>