<svg height="21" viewBox="0 0 21 21" width="21" xmlns="http://www.w3.org/2000/svg"><g fill="none" fill-rule="evenodd"><circle cx="10.5" cy="10.5" fill="#fdfdfd" r="9.5"/><path d="m8.92561494 10.1461794h-1.63528133c1.5943993-1.29187222 2.452922-2.32209946 3.31144469-3.76114704h2.2362472l-3.31144467 6.82729954c-.44152596.9198458.81764067 1.5044589 2.24851187.9198458l-.5846131 1.9991314c-.8012879.5396429-1.1733144.5396429-1.63528134.5396429-1.26734304 0-3.39320877-1.3409307-2.2076298-3.5567369zm5.39642836-6.00965887c0 .62549511-.6704653 1.13652053-1.4962824 1.13652053-.8176406 0-1.4962824-.50693722-1.4962824-1.13652053 0-.62958332.6704654-1.13652053 1.4962824-1.13652053.8176407 0 1.4962824.51102542 1.4962824 1.13652053z" fill="#000" fill-rule="nonzero"/></g></svg>