<svg height="20" viewBox="0 0 20 20" width="20" xmlns="http://www.w3.org/2000/svg"><path d="m18 1.77561573c-.6617137.30161862-1.3738506.50507069-2.1210645.5961183.7629255-.4683519 1.3479082-1.21022132 1.6237744-2.09521907-.7135984.43425589-1.5035625.74936304-2.3450459.91946845-.673406-.7358745-1.6332745-1.19598341-2.695451-1.19598341-2.0392181 0-3.69258874 1.69543388-3.69258874 3.78690613 0 .29637308.03251934.58525254.09573108.86289154-3.06924061-.1581156-5.79063395-1.66545936-7.61208209-3.95663686-.31788564.55902483-.49984776 1.20947195-.49984776 1.90413149 0 1.31363341.65184824 2.47289804 1.6427745 3.15182095-.60507886-.01985812-1.17471531-.19033821-1.67273613-.47397212-.00036539.01573662-.00036539.03184793-.00036539.04795923 0 1.83444073 1.27300408 3.36464006 2.96254796 3.71309387-.30984715.08617675-.63613666.13263726-.97302235.13263726-.23823153 0-.46952074-.02360493-.69496377-.06819203.47025151 1.50434634 1.83387127 2.59954034 3.44960721 2.62988964-1.26386943 1.0157616-2.8558553 1.6212469-4.58632239 1.6212469-.29778941 0-.59192497-.0179847-.88094513-.0532048 1.63473601 1.0749613 3.57566531 1.7014288 5.66092199 1.7014288 6.79288711 0 10.50703371-5.77009542 10.50703371-10.77434181 0-.16411051-.0032885-.32784633-.0102308-.49045811.7212715-.53279712 1.3475427-1.20010491 1.8422751-1.95958435z" fill-rule="evenodd" transform="translate(1 2)"/></svg>